<svg width="16" height="16" viewBox="0 0 16 16" fill="none" xmlns="http://www.w3.org/2000/svg">
<g clip-path="url(#clip0_22654_552)">
<path d="M16 7.88513C16 10.0047 15.6448 11.724 15.2065 11.724C14.7682 11.724 14.4131 10.0051 14.4131 7.88513C14.4131 5.76512 14.7683 4.0463 15.2065 4.0463C15.6446 4.0463 16 5.76497 16 7.88513Z" fill="#44403C"/>
<path d="M13.9752 7.88514C13.9752 10.2514 12.965 12.1703 11.7189 12.1703C10.4728 12.1703 9.46265 10.2514 9.46265 7.88514C9.46265 5.51893 10.4727 3.59998 11.7188 3.59998C12.9649 3.59998 13.9751 5.51832 13.9751 7.88514" fill="#44403C"/>
<path d="M9.02496 7.88514C9.02496 10.399 7.00463 12.4368 4.51256 12.4368C2.02049 12.4368 0 10.3985 0 7.88514C0 5.37179 2.02033 3.33334 4.51256 3.33334C7.00478 3.33334 9.02496 5.37133 9.02496 7.88514Z" fill="#44403C"/>
</g>
<defs>
<clipPath id="clip0_22654_552">
<rect width="16" height="16" fill="white"/>
</clipPath>
</defs>
</svg>
