<svg width="165" height="28" viewBox="0 0 165 28" fill="none" xmlns="http://www.w3.org/2000/svg">
<path d="M0.224557 22.17C0.180792 20.6371 1.27537 20.1256 2.00461 19.0614C2.86534 17.8641 3.50061 16.5705 5.14811 14.8138C5.76657 14.1648 6.88624 13.6106 7.69421 13.4829C8.51267 13.3335 9.00772 13.373 9.35783 13.3737C10.9889 13.474 11.7234 13.7117 12.6184 13.919C14.6983 14.4576 16.6433 15.0868 18.5678 15.6869C18.6673 15.718 18.7046 15.8087 18.7486 15.8226C19.1694 15.9548 19.892 16.0941 20.3102 16.2271C20.9275 16.4235 21.8777 16.7 22.6553 16.951C22.9493 17.0467 23.2127 17.1333 23.4223 17.2105C23.7264 17.3229 24.0425 17.4131 24.1248 17.6202C24.2385 17.6569 24.3384 17.5107 24.3701 17.5089C24.3704 17.5091 24.3707 17.5093 24.371 17.5096C24.4715 17.5046 24.693 17.6725 24.7479 17.6768C24.7561 17.6774 24.7324 17.5502 24.8545 17.6134C24.8655 17.6189 24.8372 17.696 24.9472 17.7204C24.9779 17.7277 25.3676 17.68 25.4752 17.6922C25.8261 17.7376 26.6463 17.972 27.0633 18.0211C27.1276 18.0294 27.1704 17.987 27.2376 17.9944C27.2722 17.9982 27.3178 18.0557 27.3284 18.0566C27.3742 18.0605 27.6069 17.8511 27.4815 18.3019C27.7006 18.2965 27.6521 18.1372 27.6677 18.0393C27.8979 18.0489 27.9924 18.2753 28.0719 18.0509C29.1977 18.1778 30.3237 18.2208 31.3618 18.1483C31.3584 18.1109 31.3551 18.0734 31.3518 18.036C31.6705 18.1548 31.7354 17.8882 31.93 18.0807C32.0237 18.0182 32.1153 17.9545 32.1999 17.8903C32.4219 17.8637 32.6305 17.8271 32.8004 17.7871C32.681 18.0076 33.7312 17.0929 34.6325 15.9708C35.5928 14.8281 36.589 13.503 37.63 12.2306C37.7229 12.1168 37.8072 12.14 37.9611 11.9527C38.1303 11.747 38.2977 11.3966 38.5249 11.1241C38.7237 10.8852 39.0766 10.5803 39.3107 10.3212C39.3634 10.2626 39.3616 10.1862 39.3676 10.1796C39.4029 10.1409 39.4658 10.1908 39.5002 10.1537C39.5412 10.1091 39.5433 10.0148 39.5916 9.96371C39.7712 9.77274 39.9425 9.54206 39.9653 9.51776C40.0758 9.40105 40.1585 9.42554 40.1677 9.41616C40.2917 9.28751 40.1945 9.2917 40.2267 9.26076C40.3494 9.14353 40.5105 9.10862 40.6206 8.96199C40.6614 8.90774 40.6951 8.83826 40.7175 8.74365C40.761 8.79355 40.8044 8.84342 40.8479 8.89329C41.036 8.7361 40.7995 8.74059 40.8087 8.68253C40.8131 8.65932 41.1768 8.28338 41.2063 8.25584C41.3085 8.15898 41.3757 8.21469 41.3847 8.20647C41.4063 8.18649 41.5698 7.85849 41.748 7.77666C41.9588 7.67995 41.9198 7.9851 41.9802 7.96843C41.9904 7.96554 42.1275 7.78916 42.1887 7.8048C42.2549 7.82097 42.1238 7.96173 42.1443 7.97649C42.1583 7.98642 42.465 7.83508 42.4845 7.93633C42.5121 8.02853 42.1416 8.27483 42.109 8.36917C42.1036 8.3847 42.1986 8.43267 42.1924 8.44509C42.1653 8.49303 41.503 9.23555 41.4612 9.25956C41.4606 9.18978 41.4601 9.11998 41.4597 9.05013C41.4103 9.09861 41.361 9.14713 41.3116 9.19579C41.3487 9.09738 41.3859 8.99907 41.4234 8.90072C41.0909 8.77395 41.0448 9.19752 41.125 9.40478C41.1376 9.43742 41.1532 9.46475 41.1712 9.48381C41.1854 9.49867 41.2149 9.50738 41.251 9.51539C41.3677 9.54114 41.5532 9.56016 41.5208 9.75219C41.5197 9.75879 41.5184 9.76558 41.5167 9.77259C41.5234 9.77046 41.5301 9.76834 41.5368 9.76621C41.5721 9.75499 41.6075 9.74379 41.6428 9.73263C41.6661 9.64951 41.6896 9.56638 41.7132 9.48324C41.6611 9.50644 41.6091 9.52971 41.557 9.55305C41.5496 9.52106 41.5423 9.48906 41.5349 9.45705C41.5994 9.31933 41.6643 9.18186 41.7297 9.04434C41.7944 9.0015 41.8428 9.06568 41.8885 9.03745C42.4607 8.68818 41.9987 8.83604 42.3075 8.54788C42.3792 8.53198 42.4508 8.51617 42.5225 8.50045C42.3792 8.39796 42.5856 8.33475 42.6828 8.11808C42.7062 8.17629 42.7296 8.23445 42.7531 8.29258C42.9514 8.03165 43.6107 7.74652 43.2611 7.66237C43.3316 7.62633 43.4021 7.59043 43.4726 7.55455C43.4786 7.47374 43.4849 7.39269 43.491 7.31197C43.5551 7.25289 43.6193 7.19384 43.6837 7.1348C43.704 7.1536 43.7243 7.1724 43.7446 7.19121C43.6968 7.24158 43.6491 7.29195 43.6015 7.34233C43.6985 7.36263 43.7954 7.38304 43.8923 7.40356C43.9174 7.3569 43.9424 7.31032 43.9675 7.26382C43.7622 7.36342 43.8625 7.06962 43.8298 6.94298C43.9258 6.78343 44.1097 6.80097 44.1566 6.7618C44.1785 6.74332 44.2291 6.32508 44.3386 6.61453C44.4343 6.467 44.5303 6.31987 44.6269 6.17274C44.6897 6.13944 44.7521 6.1066 44.8146 6.07368C44.8053 6.26914 45.2139 6.07834 45.034 6.33804C44.9002 6.53201 44.7728 6.48807 44.6964 6.56746C44.6274 6.63904 44.6493 6.73434 44.5765 6.81448C44.0861 7.35329 43.6665 7.77333 43.1675 8.25715C43.0689 8.35262 43.014 8.47164 42.9475 8.53559C42.8723 8.60771 42.8846 8.44205 42.8134 8.55661C42.7389 8.67711 42.7807 8.7562 42.7571 8.78443C42.7424 8.80194 42.6377 8.80449 42.5928 8.85385C42.4079 9.05674 42.1943 9.4049 42.1682 9.4337C42.147 9.45627 41.861 9.72662 41.6822 9.8938C41.6064 9.96447 41.5497 10.0163 41.5397 10.0221C41.5217 10.0325 41.3378 9.81813 41.4502 10.1426C41.4193 10.1865 41.3885 10.2303 41.3578 10.2742C41.3213 10.2311 41.2848 10.188 41.2483 10.1449C41.2017 10.522 41.1829 10.3626 40.9976 10.6037C40.5535 11.1814 39.8327 11.9705 39.3482 12.5922C39.2398 12.7312 39.2493 12.825 39.1213 12.9891C39.0024 13.1407 38.53 13.4049 38.8133 13.4946C38.3576 13.6755 38.6348 13.9888 38.3 13.993C38.3127 14.0366 38.3256 14.0803 38.3384 14.1238C38.0673 14.203 38.1323 14.347 37.9882 14.5554C37.9265 14.6449 37.8729 14.4399 37.8819 14.7306C37.8445 14.7542 37.8071 14.7777 37.7699 14.801C37.7439 14.7674 37.718 14.7339 37.692 14.7003C37.5646 14.9107 37.5383 14.9088 37.6757 14.9851C37.5807 15.0573 37.4835 15.1321 37.3885 15.204C37.4188 15.2472 37.4489 15.2907 37.479 15.3341C37.5872 15.3571 39.1606 13.1832 39.3677 12.8616C39.7354 12.5935 40.1912 11.8185 40.4435 11.5617C40.5444 11.4588 40.6725 11.4848 40.818 11.3342C40.9628 11.1842 41.054 10.9165 41.1238 10.8294C41.2409 10.682 41.6003 10.2695 41.8398 10.0322C42.0516 9.82211 42.1656 9.74765 41.9271 10.1088C41.9046 10.1431 41.879 10.1812 41.85 10.2235C41.9148 10.2345 41.9796 10.2455 42.0443 10.2566C42.0485 10.2448 42.0525 10.2334 42.0564 10.2223C42.2137 9.78365 42.1961 9.97336 42.466 9.69906C42.5824 9.58093 42.7542 9.20407 42.928 9.39124C42.7569 9.65068 42.4786 9.84004 42.3041 10.043C42.2928 10.0561 42.2369 10.1937 42.1635 10.3163C42.124 10.3821 42.0795 10.4436 42.0338 10.4792C41.9158 10.5707 41.7987 10.3356 41.7951 10.7553C41.4387 10.7608 41.5321 11.0227 41.5111 11.0865C41.4744 11.1977 41.367 11.1213 41.2852 11.1936C41.1961 11.2721 41.2098 11.3906 41.1999 11.4031C41.0963 11.5268 40.566 12.1769 40.5011 12.1731C40.5048 12.1323 40.5086 12.0915 40.5124 12.0506C40.3439 12.1941 40.4764 12.2448 40.4522 12.299C40.4246 12.3314 40.3968 12.364 40.3692 12.3965C40.3586 12.3657 40.348 12.3349 40.3374 12.3041C40.1776 12.506 40.3779 12.4156 40.1433 12.6953C39.995 12.8721 39.761 12.9895 39.753 13.0117C39.7505 13.0183 39.8522 13.0073 39.7996 13.0865C39.7126 13.2172 39.5408 13.4244 39.4463 13.3861C39.4087 13.4538 39.4868 13.509 39.482 13.5182C39.4607 13.5586 39.0053 14.1693 38.9246 14.2779C38.6989 14.5804 38.4193 14.8931 38.1751 15.2191C38.1499 15.2527 38.1193 15.1933 38.0943 15.2272C38.0544 15.2813 37.9109 15.6097 37.884 15.6533C37.8151 15.7642 37.572 16.001 37.5603 16.0589C37.5587 16.0671 37.6929 16.034 37.6303 16.1507C37.5603 16.2805 37.5239 16.1496 37.518 16.155C37.303 16.3565 37.2442 16.5484 37.1286 16.7102C37.0901 16.7638 36.9515 16.7989 36.9109 16.8855C36.9063 16.8953 36.9788 16.9293 36.9751 16.9396C36.9178 17.0706 36.725 17.0757 36.68 17.1141C36.5697 17.2082 36.7006 17.2181 36.6965 17.224C36.6357 17.3004 36.523 17.3727 36.4313 17.4854C36.4217 17.4972 36.4122 17.5089 36.4027 17.5205C35.9973 18.014 35.6542 18.4144 35.1941 18.8732C35.1349 18.932 35.0128 18.9472 35.0041 18.9556C34.9772 18.9825 35.0463 19.0384 34.9645 19.114C34.7926 19.2714 34.6378 19.4142 34.4688 19.5441C34.4346 19.5703 34.3715 19.516 34.345 19.5336C34.2627 19.5956 34.0764 19.9628 33.9419 19.7294C33.8861 20.0278 33.6769 19.8964 33.5445 19.944C33.5088 19.9567 33.4708 19.9697 33.4299 19.9829C33.031 20.1129 32.4327 20.2577 32.0238 20.2809C31.9261 20.287 31.8736 20.2246 31.8205 20.2271C31.724 20.2343 31.1788 20.3204 31.1469 20.3096C31.0866 20.2927 31.1055 19.9935 30.8273 20.2697C30.6554 20.2968 30.6718 20.1726 30.6359 20.1675C30.3577 20.1298 30.0923 20.4061 30.1385 20.1545C29.8192 20.2269 29.6033 20.3618 29.4736 20.1247C29.4724 20.2392 29.3206 20.3054 29.1343 20.2552C29.3322 20.0684 29.3084 19.9479 29.7597 19.9876C29.7668 19.9882 29.7529 20.071 29.7599 20.0716C29.8233 20.0776 29.9611 20.0358 30.0691 20.0391C30.1775 20.0424 30.118 20.0997 30.1623 20.098C30.203 20.0963 30.2004 20.0171 30.2586 20.0148C30.4453 20.008 30.6127 19.9797 30.717 19.9735C30.7823 19.9697 30.8634 20.0352 30.9149 20.0323C31.1153 20.0215 31.5329 19.9336 31.7824 19.911C31.8346 19.9067 31.8198 19.9875 31.9362 19.9796C31.9496 19.9786 31.9888 19.8917 32.0832 19.8616C32.1784 19.8313 32.2616 19.8594 32.3213 19.8413C32.3709 19.8262 32.3394 19.7583 32.4442 19.7358C32.504 19.7252 33.0355 19.6498 33.3157 19.5844C33.4022 19.5675 33.4622 19.5517 33.4734 19.5512C33.5281 19.5485 33.591 19.6323 33.6177 19.6074C33.6222 19.6025 33.5919 19.5086 33.6068 19.4942C33.8222 19.3117 34.6306 18.8008 35.0456 18.3427C35.3889 17.9815 35.716 17.5967 36.0421 17.2048C36.4992 16.6529 36.9477 16.0688 37.429 15.4587C37.4305 15.4298 37.4321 15.4008 37.4338 15.3718C37.3493 15.4742 37.2644 15.577 37.1803 15.6785C37.144 15.6499 37.1077 15.6212 37.0715 15.5925C36.9522 15.7262 37.0516 15.7774 37.1058 15.8154C37.0418 15.849 36.9793 15.8809 36.915 15.9148C37.0028 16.0618 36.6396 16.3322 36.4956 16.5032C36.4015 16.615 36.3357 16.7871 36.2832 16.8412C36.1698 16.9584 36.0979 16.8892 36.0884 16.8979C36.0778 16.9077 36.0315 17.0307 35.9679 17.1398C35.9413 17.1842 35.9122 17.2266 35.8814 17.2603C35.7166 17.4401 35.5854 17.3588 35.4633 17.6896C35.1238 17.9488 34.846 18.3084 34.5635 18.5995C34.5202 18.4458 34.354 18.7909 34.2405 18.8822C33.8942 19.1707 33.5934 19.3369 33.2645 19.4056C32.7527 19.5272 32.1556 19.5934 31.6172 19.6208C31.4829 19.6278 31.3745 19.5539 31.2989 19.563C31.2591 19.5677 31.2494 19.6668 31.1917 19.6582C31.1814 19.6564 31.1682 19.5658 31.0608 19.5594C30.8006 19.5461 30.1368 19.7184 29.9671 19.5404C29.0532 19.572 28.1214 19.5396 27.1855 19.4562C27.1667 19.4163 27.1479 19.3764 27.1293 19.3364C26.9285 19.507 26.244 19.2987 25.9018 19.248C25.3002 19.1656 24.5243 19.0677 23.999 18.9505C23.8853 18.9254 23.8043 18.8504 23.6958 18.8251C23.65 18.8146 23.5762 18.8689 23.5281 18.8573C23.1338 18.7637 22.6593 18.5985 22.2187 18.4488C22.0405 18.3888 21.8701 18.3336 21.7142 18.2886C20.4267 17.9166 19.2225 17.5515 17.9141 17.1731C15.1105 16.4178 12.7252 15.5326 9.28723 15.1241C8.96109 15.117 8.56134 15.0916 8.00629 15.1929C7.45636 15.2824 6.76398 15.6259 6.35031 16.0516C5.30523 17.1217 4.71764 18.1122 4.07575 19.1377C4.04256 19.1922 3.97465 19.1482 3.9487 19.1908C3.79392 19.4415 3.52948 20.041 3.3707 20.326C3.24244 20.5532 2.93966 20.8593 3.00794 20.9978C3.60449 20.2694 4.06771 19.4129 4.63654 18.6103C4.67718 18.553 4.74668 18.5872 4.75246 18.5807C4.85991 18.4623 4.7164 18.4889 4.83886 18.2916C4.8774 18.2238 5.48594 17.769 5.23972 17.6986C5.40697 17.6092 6.21526 16.6421 6.41403 16.4216C6.46585 16.3539 6.37228 16.3464 6.38141 16.3318C6.42214 16.2674 6.51563 16.3138 6.56392 16.2716C6.56426 16.2713 6.5646 16.271 6.56494 16.2707C6.72101 16.0925 7.28194 15.6476 7.41768 15.6145C7.72158 15.4574 8.51864 15.4258 8.75198 15.421C8.98861 15.4013 8.94565 15.2981 9.1331 15.2929C9.24191 15.2909 9.17579 15.339 9.27696 15.3786C9.31543 15.391 9.37249 15.4031 9.461 15.4159C9.65022 15.4375 10.221 15.4581 10.3406 15.4823C10.4733 15.5055 10.6008 15.593 10.7707 15.6225C11.0204 15.6648 11.5488 15.7489 11.7911 15.7876C11.8054 15.7899 11.8619 15.72 11.8951 15.7298C11.966 15.7505 11.9207 15.8426 11.9727 15.8658C12.0311 15.8884 12.9717 16.1166 13.1273 16.1611C13.2393 16.1914 13.3259 16.1529 13.3864 16.1697C13.4334 16.1829 13.4167 16.2649 13.4648 16.2788C13.4796 16.2828 13.6273 16.2477 13.7511 16.2832C13.8713 16.3175 14.3022 16.5082 14.3566 16.5242C14.3907 16.534 14.3702 16.4667 14.4688 16.4957C14.5589 16.5224 14.5984 16.6134 14.6504 16.6292C14.7727 16.6661 14.9232 16.6403 15.0516 16.6763C15.4243 16.781 15.3735 16.866 15.396 16.8756C15.4546 16.9012 15.5032 16.8242 15.5238 16.8282C15.6118 16.8457 15.823 16.8893 15.8988 16.9076C15.9938 16.9305 16.0109 17.0218 16.1118 17.0511C16.1868 17.0726 16.356 17.0371 16.5283 17.0828C16.9122 17.184 17.3699 17.3011 17.7441 17.4134C17.8547 17.4465 17.8508 17.5244 17.8843 17.5362C18.0608 17.5985 18.1868 17.547 18.2362 17.5626C18.5974 17.676 19.2131 17.9948 19.5454 18.1038C19.6841 18.1492 20.3036 18.2666 20.6376 18.3758C20.6762 18.3883 20.6231 18.4346 20.669 18.4384C20.7791 18.4473 20.8035 18.3284 20.8553 18.3474C20.8802 18.3569 20.9197 18.4395 20.9904 18.4673C21.3607 18.6123 21.6411 18.6388 21.8131 18.6929C21.9146 18.7247 22.0167 18.7567 22.1195 18.7889C23.6299 19.2644 25.1853 19.6311 26.6329 19.8389C26.8021 19.8632 27.0267 19.8199 27.2772 19.9186C27.281 19.9568 27.2849 19.9951 27.2888 20.0333C27.302 19.9977 27.3153 19.962 27.3285 19.9262C27.6234 19.9382 27.7408 19.9019 28.0348 19.9741C28.0604 19.9802 28.1268 20.1577 28.1918 19.9488C28.4755 20.1244 28.3254 19.9577 28.5465 19.9576C28.7651 19.9566 28.9779 20.0142 29.1902 20.0319C29.3051 20.1127 28.8068 20.2703 28.7718 20.2666C28.7182 20.2632 28.672 20.1545 28.6224 20.146C28.4768 20.1208 28.3247 20.1944 28.2998 20.0978C28.1024 20.1837 28.3428 20.1511 28.3126 20.2392C28.1886 20.1931 28.0618 20.1458 27.9373 20.0977C27.8459 20.3999 27.1762 19.9288 27.1996 20.1643C27.1472 20.1112 27.0983 20.0584 27.0478 20.0053C26.7649 20.2654 26.6452 20.0423 26.3281 19.9078C26.3465 19.9484 26.365 19.9889 26.3836 20.0295C26.3733 20.0441 26.076 20.0597 26.2032 19.9177C25.8737 20.0792 25.9409 19.7358 25.6342 19.9401C25.4706 19.9444 25.5881 19.8167 25.3077 19.7683C25.1412 19.7391 24.9173 19.774 24.7304 19.7413C24.6871 19.7335 24.6854 19.6464 24.6471 19.6385C24.6087 19.6306 24.5729 19.7082 24.5257 19.7004C24.429 19.6847 24.3186 19.601 24.2575 19.5933C24.2033 19.5862 24.1096 19.6408 23.978 19.6226C23.5202 19.5584 23.6787 19.4864 23.6163 19.4353C23.5477 19.3799 23.4624 19.5016 23.3142 19.4481C23.2994 19.4426 23.3597 19.3689 23.3095 19.3598C23.269 19.3523 23.2263 19.4383 23.0887 19.421C23.0342 19.4168 22.215 19.2151 22.0899 19.1778C22.0671 19.1716 22.0414 19.1632 22.0133 19.1532C21.7972 19.0768 21.4621 18.9149 21.281 18.8625C21.2029 18.8397 21.0986 18.8876 21.0165 18.863C20.7455 18.7821 20.31 18.648 19.961 18.542C19.6517 18.4479 19.1499 18.128 18.9342 18.221C18.4908 18.1115 18.4187 17.9571 18.3861 17.9457C18.2977 17.9149 18.2325 17.9842 18.1194 17.9553C16.6435 17.5756 14.7286 16.9604 13.3183 16.5883C12.0227 16.2656 10.8424 15.8957 9.26107 15.7727C8.94556 15.7647 8.58325 15.7462 8.12729 15.8304C7.67462 15.9063 7.13956 16.1728 6.80272 16.5175C5.607 17.7622 4.90195 19.0323 4.13714 20.3288C4.16543 20.3552 4.19374 20.3816 4.22206 20.408C4.44128 20.0647 4.73793 19.6838 4.96054 19.3477C5.25281 18.8999 5.57079 18.1349 6.02102 17.9581C5.94288 18.1031 5.71172 18.2641 5.82372 18.3348C5.99512 18.1025 6.1723 17.8731 6.3598 17.647C6.3062 17.6166 6.25251 17.5862 6.19874 17.556C6.37532 17.299 6.59229 17.0575 6.81657 16.8116C6.85645 16.7684 6.78767 16.7596 6.82398 16.7222C6.86486 16.6806 6.87704 16.7484 6.88503 16.741C6.91297 16.7131 6.93266 16.6881 6.94687 16.6659C7.00039 16.5918 7.00853 16.5461 7.02182 16.5351C7.06992 16.4982 7.06668 16.5664 7.21406 16.4732C7.48895 16.3051 7.66103 16.0946 7.68479 16.3427C7.77628 16.3021 7.8696 16.2685 7.96204 16.2416C7.96764 16.1718 7.97534 16.1019 7.98469 16.0319C8.61805 16.1598 8.79551 15.7429 9.05424 16.106C9.12118 16.0625 9.18734 16.0197 9.25282 15.9771C9.27089 15.9668 9.28918 15.9567 9.3077 15.9466C9.35539 16.0147 9.40456 16.0837 9.44726 16.153C9.46104 16.0978 9.47515 16.0426 9.48956 15.9875C9.95897 16.0726 10.4069 16.092 10.8074 16.1815C11.0798 16.2439 11.1395 16.2804 11.3836 16.3324C11.9143 16.4482 11.366 16.4318 11.7741 16.6542C11.7679 16.5818 11.7616 16.5094 11.7554 16.437C11.833 16.4299 11.9119 16.4233 11.9919 16.4173C12.0312 16.4849 12.065 16.5512 12.1016 16.6183C12.3975 16.3926 12.4826 16.6577 12.5127 16.6655C12.536 16.6711 12.6695 16.5242 12.8907 16.7363C12.8418 16.4753 13.0953 16.7891 13.1162 16.7964C13.1367 16.8028 13.4568 16.8336 13.5735 16.8679C13.6675 16.8953 13.8609 17.0019 14.0011 17.0381C14.127 17.0707 14.1365 16.9889 14.1458 16.9906C14.3034 17.0275 14.1901 17.0616 14.2993 17.0952C14.4084 17.1289 14.5141 17.0865 14.5366 17.0993C14.5479 17.1059 14.4867 17.1674 14.5404 17.1901C14.6863 17.2518 14.9685 17.2626 15.1397 17.3133C15.1989 17.3308 15.2566 17.4141 15.3232 17.4351C15.4251 17.4671 15.498 17.3991 15.5569 17.4186C15.577 17.4255 15.6709 17.5896 15.8419 17.6177C15.8741 17.6227 16.0457 17.3815 16.056 17.7961C16.0807 17.7453 16.1054 17.6946 16.1302 17.6438C16.722 17.6711 16.7473 18.1496 17.1028 17.8349C17.489 17.9939 17.1716 18.0644 17.2086 18.1001C17.2326 18.1229 17.3758 18.1198 17.3897 18.1264C17.4139 18.1384 17.396 18.1855 17.4233 18.1932C17.9312 18.3316 17.7343 18.1755 17.9127 18.165C18.3341 18.1392 18.5433 18.5308 17.9063 18.2455C17.8985 18.2724 17.8906 18.2993 17.8828 18.3262C18.0527 18.3479 18.4666 18.4821 18.2873 18.5776C18.146 18.6528 17.1788 18.2945 17.6947 18.6085C17.8136 18.6802 17.9068 18.5979 18.0711 18.8512C18.2129 18.9038 18.3095 18.6661 18.4747 18.8212C18.4676 18.7264 18.4606 18.6315 18.4536 18.5367C18.7509 18.5028 19.0428 18.7504 19.2606 18.7622C19.335 18.7663 19.709 18.4336 19.5304 18.8234C19.6526 18.8317 20.1898 19.0704 20.3006 19.0632C20.3281 19.0616 20.4223 18.8538 20.7613 19.0351C20.778 19.0695 20.7947 19.1039 20.8115 19.1383C20.463 19.1222 21.0145 19.3706 20.7981 19.5307C20.7723 19.4228 20.529 19.2904 20.4999 19.2314C20.4517 19.1304 20.6953 19.0896 20.4152 19.0382C20.1432 19.332 20.6797 19.3171 20.5096 19.6219C20.909 19.5732 20.9022 19.7291 20.9814 19.7588C21.2863 19.8718 21.4941 19.9049 21.7644 20.0072C21.7961 20.0192 21.8285 20.0321 21.8619 20.0461C21.8949 20.0313 21.8543 19.9918 21.7823 19.9456C21.6373 19.8531 21.3709 19.7356 21.3173 19.7409C21.6535 19.581 21.1982 19.4364 20.9597 19.52C20.9643 19.4433 20.9689 19.3667 20.9736 19.29C21.2175 19.4036 21.4568 19.4952 21.7263 19.5098C21.7349 19.5415 21.7436 19.5732 21.7522 19.6048C21.6836 19.6288 21.6153 19.6527 21.547 19.6767C21.7175 19.7909 21.6831 19.605 21.8376 19.756C21.8553 19.7735 21.8756 19.7955 21.899 19.823C21.931 19.7445 21.963 19.666 21.9949 19.5875C22.251 19.6905 22.5069 19.7902 22.7647 19.8871C22.9432 19.7605 23.4392 19.9492 23.2931 20.1381C23.4952 20.2034 23.2679 20.0281 23.4748 20.0235C23.5654 20.0217 23.7314 20.0541 23.7586 20.1208C23.6945 20.3201 23.4399 20.2866 23.3295 20.4068C23.3678 20.469 24.5574 20.5806 24.4078 20.7941C24.4959 20.8421 24.4785 20.7106 24.6527 20.7129C25.1395 20.721 25.8373 21.0911 26.2652 20.8367C25.8448 20.5992 25.6856 20.7579 25.3403 20.705C25.1212 20.6792 23.7888 20.4296 24.1326 20.2757C24.0783 20.2924 24.0238 20.309 23.969 20.3255C23.9344 20.2505 23.8988 20.1752 23.8658 20.1004C24.0046 20.1224 24.1453 20.144 24.2833 20.164C24.3021 20.235 24.321 20.3059 24.34 20.3768C24.3646 20.3343 24.3897 20.2918 24.4146 20.2493C24.4749 20.2526 24.535 20.2555 24.5948 20.2583C24.5672 20.31 24.5396 20.3616 24.5119 20.4132C24.5999 20.4412 24.6875 20.4687 24.7747 20.4957C24.7653 20.4173 24.7559 20.339 24.7467 20.2606C25.1699 20.3245 25.0199 20.3426 25.2275 20.524C25.3994 20.5695 25.1286 20.3749 25.5067 20.4046C25.9418 20.4348 25.6247 20.6168 26.1905 20.6545C26.204 20.6186 26.2175 20.5828 26.2309 20.5469C26.3496 20.6024 26.4677 20.6569 26.5852 20.7105C26.5752 20.6622 26.5653 20.6139 26.5554 20.5655C26.8071 20.6187 27.1647 20.5712 27.2308 20.7619C26.98 20.645 26.9478 20.9614 27.0074 21.0277C27.1335 21.1833 29.2246 21.2318 29.629 21.2028C30.1432 21.1976 30.5396 21.2903 30.9999 21.1072C30.6778 21.0063 29.5663 21.1222 29.3549 21.0207C29.334 21.0114 29.3488 20.7197 29.2049 21.0445C28.7742 20.9758 28.2511 21.0395 27.7097 20.9798C27.7339 20.8975 27.7579 20.8152 27.7818 20.7329C28.0977 20.9414 28.43 20.5683 28.3657 20.8918C28.4322 20.8962 28.4984 20.9003 28.564 20.9041C28.5673 20.8479 28.5706 20.7917 28.5738 20.7355C28.6715 20.7411 28.771 20.7463 28.8701 20.7508C28.8675 20.8071 28.8649 20.8633 28.8624 20.9196C28.9452 20.9234 29.0256 20.9266 29.1086 20.9295C29.1192 20.8737 29.1297 20.8179 29.1402 20.762C29.3828 20.8915 30.2201 20.5794 29.8517 20.9146C29.969 20.9147 30.0816 20.9139 30.1981 20.912C30.197 20.8708 30.196 20.8297 30.1949 20.7885C30.2447 20.7822 30.294 20.7757 30.3429 20.769C30.3276 20.8066 30.3122 20.8442 30.2967 20.8818C30.5186 20.8105 30.7431 20.9975 30.8862 20.8607C30.7844 20.8379 30.6891 20.8139 30.5894 20.7894C30.7784 20.837 31.1166 20.7056 31.1467 20.7026C31.2409 20.6956 31.2964 20.7749 31.3967 20.7709C31.4893 20.7667 31.4711 20.7039 31.4883 20.7047C31.983 20.7222 31.8403 21.0828 32.0191 20.6492C32.0505 20.7017 32.0821 20.7541 32.1139 20.8064C32.1403 20.7558 32.1662 20.7052 32.1914 20.6545C32.3367 20.6387 32.4776 20.6212 32.622 20.6004C32.5628 20.5397 32.5035 20.4788 32.4449 20.4174C32.6514 20.3519 32.7706 20.4704 32.7931 20.4696C32.8523 20.4664 32.8603 20.3748 32.8775 20.3712C33.6123 20.2138 33.3181 20.3364 33.5831 20.5172C33.6176 20.5411 33.662 20.5654 33.7212 20.5876C33.8182 20.4179 33.6356 20.3426 33.581 20.2208C33.7653 20.2249 33.8045 20.1707 33.973 20.0987C34.0166 20.0797 34.0965 20.118 34.1247 20.1037C34.1495 20.0913 34.1853 19.9839 34.2398 19.9494C34.3313 19.8922 34.4795 19.8457 34.6046 19.7472C34.7097 19.6685 34.9883 19.3585 35.2014 19.1443C35.2935 19.0536 35.3165 19.1195 35.3403 19.096C35.3501 19.0863 35.3677 18.9608 35.4254 18.9007C35.8017 18.5105 36.2029 18.103 36.5873 17.6821C36.6846 17.5756 36.7814 17.4663 36.8766 17.3546C37.199 16.9762 37.4782 16.5436 37.8024 16.158C37.8714 16.0761 37.8785 16.1553 37.9098 16.1202C37.9202 16.1083 37.8583 16.0305 37.9928 15.9277C38.0417 15.8901 38.0507 15.9866 38.0906 15.943C38.1098 15.922 38.0527 15.8573 38.1429 15.7159C38.3086 15.4563 38.5006 15.3999 38.5149 15.377C38.5421 15.3331 38.4779 15.3003 38.5189 15.2457C38.7196 14.9789 38.8868 14.7537 39.07 14.5187C39.155 14.409 39.7527 13.6524 39.796 13.6201C39.8929 13.5462 39.9369 13.7249 40.0294 13.604C40.0274 13.5476 40.0255 13.4911 40.0237 13.4346C39.9589 13.469 39.8945 13.5029 39.8295 13.5376C39.9838 13.4237 40.0663 13.2177 40.1557 13.1131C40.1724 13.0937 40.373 12.9552 40.4437 12.8583C40.4326 12.9152 40.4215 12.972 40.4106 13.0287C40.4402 13.0299 40.4699 13.0311 40.4995 13.0323C40.6244 12.8248 40.7865 12.6309 40.9476 12.4458C41.0057 12.3789 41.0308 12.4384 41.0896 12.3712C41.434 11.9794 41.1677 11.9254 41.8334 11.8324C41.6923 11.9349 41.3379 12.4439 41.2694 12.5032C41.2216 12.544 40.7754 12.4886 41.1305 12.6687C40.8096 13.0516 40.9222 12.5812 40.6602 12.9705C40.7026 12.9935 40.7451 13.0165 40.7875 13.0395C40.7061 13.1846 40.6489 13.2916 40.521 13.3155C40.677 13.4872 40.2221 13.8291 40.0426 14.0738C39.7824 14.4273 39.514 14.8469 39.2486 15.1897C39.1576 15.3072 39.0335 15.3171 39.0222 15.3316C39.0053 15.3534 39.0188 15.4619 38.9843 15.5053C38.8574 15.6654 38.3632 16.0617 38.4343 16.3203C39.2018 15.3804 39.9634 14.4327 40.7366 13.4946C40.5557 13.5434 41.3325 12.5891 41.3781 12.5453C41.4189 12.5041 41.4456 12.5899 41.4601 12.5797C41.567 12.5026 41.5536 12.3483 41.5797 12.3174C41.5996 12.2937 41.6791 12.2791 41.7495 12.1941C41.7624 12.1786 41.7246 12.1391 41.7384 12.1224C41.831 12.0131 41.9239 11.9049 42.0171 11.7953C42.0232 11.7889 42.1072 11.8128 42.1309 11.7853C42.1546 11.7575 42.1179 11.6785 42.1237 11.6713C42.1991 11.584 42.3671 11.4679 42.4393 11.3853C42.4642 11.3565 42.4029 11.3384 42.4312 11.3065C42.5182 11.2084 42.5758 11.3156 42.66 11.1741C42.6882 11.1267 42.6203 11.0721 42.6974 11.0013C42.7521 10.9512 42.8636 11.0594 42.8755 11.0543C42.8809 11.0517 42.8934 11.0175 42.913 10.9742C42.9499 10.892 43.0122 10.7766 43.0981 10.7799C43.1789 11.0932 43.2398 10.6407 43.1435 10.5792C43.2317 10.5228 43.32 10.4666 43.4083 10.4107C43.4098 10.366 43.4114 10.3213 43.413 10.2766C43.7805 10.0609 43.8897 9.82586 44.1895 9.55898C44.204 9.54585 44.4791 9.34264 44.498 9.38167C44.4118 9.57615 44.2785 9.72546 44.0971 9.73367C44.1342 10.055 43.9881 9.92569 43.7822 10.201C43.7136 10.2933 43.7575 10.3437 43.7493 10.3541C43.5717 10.5827 43.3198 10.8948 43.072 11.1138C42.9377 11.2325 42.8048 11.3233 42.6842 11.3584C42.6686 11.4562 42.8827 11.2417 42.8347 11.3557C42.806 11.4159 41.8529 12.6285 42.0023 12.1094C41.9739 12.1524 41.9455 12.1955 41.9173 12.2384C42.045 12.4136 41.8444 12.5768 41.7024 12.4195C41.7197 12.4656 41.7371 12.5117 41.7545 12.5578C41.7517 12.6176 41.7303 12.6734 41.6884 12.7413C41.526 12.9986 40.3262 14.3422 40.2905 14.4366C40.3277 14.4698 40.3649 14.5029 40.4021 14.5361C40.9478 13.9563 41.342 13.2817 42.0082 12.7113C41.9563 12.7004 41.9045 12.6894 41.8525 12.6787C42.1248 12.4565 42.398 12.2356 42.6721 12.0165C42.4984 12.3484 42.1785 12.8363 41.8796 13.0857C41.8264 13.13 41.8084 13.0499 41.7923 13.0569C41.7503 13.0752 41.8087 13.1815 41.7233 13.3012C41.6376 13.421 41.3405 13.6542 41.3207 13.6819C41.2828 13.735 41.2704 13.9534 41.1987 14.038C41.1045 14.149 41.1046 14.0228 41.0847 14.0443C41.0016 14.1331 40.9632 14.2425 40.8987 14.3119C40.8022 14.4158 40.5079 14.5537 40.6058 14.7608C40.6765 14.6889 40.7483 14.6159 40.8189 14.5445C40.5314 15.0135 40.0559 15.1802 39.8746 15.727C39.9919 15.9796 40.2458 15.613 40.092 15.9721C40.132 15.9171 40.1723 15.8618 40.2128 15.8062C40.1822 15.7607 40.1516 15.7152 40.1211 15.6696C40.2243 15.6019 40.3276 15.5341 40.431 15.4662C40.3738 15.4625 40.316 15.4595 40.2585 15.4562C40.4944 15.1097 40.7229 14.7536 41.0098 14.7992C40.9682 14.7542 40.9266 14.7092 40.885 14.6642C41.1866 14.4112 41.3566 13.8002 41.5485 14.0985C41.5464 14.073 41.5443 14.0474 41.542 14.022C41.7435 13.8864 41.5725 13.8741 41.6163 13.7964C41.6291 13.7737 41.9738 13.4713 41.9226 13.69C42.264 13.3994 41.9346 13.302 42.0022 13.1993C42.3032 13.0827 42.4527 12.5428 42.5033 12.8657C42.5376 12.8395 42.5718 12.8134 42.606 12.7873C42.5469 12.5563 42.8033 12.5944 42.9561 12.5288C42.9923 12.4931 43.0286 12.4574 43.065 12.4218C43.0374 12.3534 43.0097 12.2852 42.9822 12.2168C43.5292 12.0588 42.7872 11.6158 43.4703 11.9202C43.4803 11.9739 43.4904 12.0275 43.5006 12.0811C43.4633 12.1551 43.4263 12.2289 43.3893 12.303C43.5485 12.1389 43.7082 11.9756 43.8686 11.813C43.9354 11.7454 44.0023 11.6779 44.0693 11.6105C44.4906 11.4375 44.4838 11.1189 44.9072 10.889C44.9217 10.8447 44.9363 10.8005 44.951 10.7562C45.0414 10.8975 44.9127 11.003 45.1735 10.8255C45.2755 10.8836 45.1468 11.0462 45.0185 11.0569C44.9873 11.0593 45.0527 10.8569 44.9039 11.016C44.8028 11.1243 45.0849 11.0174 44.75 11.312C44.7819 11.3185 44.8136 11.3251 44.8454 11.3316C44.8127 11.3667 44.7799 11.4019 44.7472 11.4371C44.6705 11.4255 44.5938 11.4141 44.517 11.4027C44.5134 11.5471 44.57 11.6801 44.3831 11.849C44.3978 11.7713 44.2392 11.754 44.1586 11.8488C44.1937 11.8798 44.2289 11.9108 44.264 11.9418C44.2189 12.0046 44.1832 12.0403 44.1534 12.063C44.0673 12.1289 44.0317 12.0851 43.9697 12.2776C43.9252 12.272 43.8806 12.2664 43.836 12.2608C43.8619 12.4645 43.6141 12.9126 43.4991 12.6933C43.5769 12.946 43.3085 13.1051 43.1005 13.0739C43.1305 13.1105 43.1605 13.1471 43.1905 13.1837C43.1597 13.2346 43.1292 13.2852 43.0983 13.3363C43.0556 13.3432 43.013 13.3501 42.9703 13.3571C42.9649 13.4071 42.9596 13.4571 42.9544 13.507C42.9025 13.4962 42.8507 13.4852 42.7986 13.4745C42.7982 13.562 42.798 13.6494 42.798 13.7366C42.7431 13.7441 42.6884 13.7514 42.6333 13.7591C42.7051 13.825 42.4616 14.151 42.3399 14.1979C42.3401 14.2421 42.3405 14.286 42.3406 14.3303C42.2943 14.3135 42.248 14.2967 42.2016 14.2799C42.2141 14.3231 42.2266 14.3662 42.2391 14.4093C42.1735 14.4305 42.1079 14.4516 42.0423 14.4728C42.0665 14.8011 41.9081 14.6798 41.8747 14.7226C41.8124 14.8024 41.7057 15.1575 41.6637 15.1974C41.6218 15.237 41.5413 15.2065 41.506 15.2376C40.9239 15.7486 41.2925 15.6435 41.2227 15.7841C41.1849 15.8605 41.0888 15.858 41.0493 15.92C40.9811 16.0262 40.6612 16.5803 40.6298 16.6035C40.5853 16.6357 40.3851 16.3126 40.3484 16.5046C40.4949 16.6301 40.1101 16.7953 40.4279 16.8305C40.3142 16.9331 40.1988 17.0377 40.0842 17.1411C40.272 17.2724 40.0401 17.3245 39.9187 17.4931C39.7488 17.7301 39.4425 18.3372 39.2771 18.1687C39.2731 18.2579 39.2693 18.3467 39.2657 18.4351C38.9643 18.702 38.7402 19.0302 38.4881 19.3461C38.4329 19.4154 38.3793 19.4809 38.3211 19.5477C37.3867 20.5335 36.3478 22.0192 34.1925 22.6427C34.1638 22.6501 34.135 22.6573 34.106 22.6645C34.0269 22.6838 34.0183 22.6067 33.9611 22.6201C33.6621 22.6961 32.932 22.8962 32.5352 22.9295C32.4101 22.9416 32.3385 22.8752 32.2981 22.8769C32.1602 22.8818 32.206 22.9751 32.1434 22.9796C32.0434 22.9886 31.5194 22.9471 31.3447 22.9477C31.2553 22.9492 31.1601 23.0337 31.0561 23.0153C31.0472 23.0138 31.0589 22.9324 31.0514 22.9314C30.8648 22.9315 30.9803 22.9951 30.9167 22.9947C30.4692 22.9903 29.9956 22.9964 29.5178 22.9725C29.3962 22.9665 29.2207 22.9054 29.1182 22.8967C29.0792 22.8935 29.1475 22.9571 29.0123 22.9473C28.9665 22.9439 28.9545 22.8639 28.9036 22.8567C28.6846 22.8258 28.593 23.0768 28.416 22.8607C28.0471 22.8541 27.4039 22.8644 27.072 22.8281C26.9932 22.8197 26.9599 22.7687 26.8843 22.7609C26.8302 22.7552 26.7303 22.8167 26.647 22.8073C26.565 22.7981 26.4391 22.7124 26.283 22.6937C26.1174 22.6739 25.9002 22.6835 25.8645 22.6778C25.8195 22.671 25.8116 22.5813 25.7665 22.5755C25.6295 22.5578 25.2504 22.5831 25.0723 22.5607C24.8788 22.5366 24.7775 22.4744 24.7123 22.4631C24.6527 22.4531 24.5691 22.5123 24.5415 22.5077C24.4987 22.5006 24.5049 22.4139 24.4508 22.404C24.364 22.3884 24.2638 22.4239 24.1319 22.3983C23.155 22.2088 22.2084 21.9691 21.2748 21.6867C19.9923 21.2979 18.7377 20.8965 17.4833 20.4914C17.2506 20.416 17.0918 20.4327 16.7515 20.3048C16.6106 20.252 16.6961 20.1841 16.58 20.1679C16.5284 20.1608 16.5213 20.2317 16.458 20.2168C16.1798 20.1512 15.8737 19.9947 15.7542 19.9614C15.7061 19.9478 15.6292 20.0084 15.5316 19.9815C14.8057 19.7814 13.9502 19.5139 13.1738 19.3146C12.7596 19.2079 12.129 19.08 11.6599 18.9665C10.7829 18.7547 9.74224 18.5022 9.15232 18.4688C8.76992 18.4453 8.56222 18.4858 8.62152 18.478C8.64356 18.4729 8.68788 18.4426 8.68028 18.4508C7.83826 19.3392 6.99604 20.8668 6.17353 22.2214C6.74263 21.5659 7.29879 20.5705 7.81702 19.8479C8.15492 19.3733 8.52734 18.8898 8.82468 18.5994C8.8184 18.6201 8.64855 18.6988 8.66532 18.6827C8.67724 18.674 8.87326 18.6598 9.14422 18.6697C10.2494 18.7423 12.0771 19.2253 13.5839 19.6411C14.5471 19.9111 15.7612 20.2575 16.8103 20.6098C16.8573 20.6255 16.9735 20.5957 17.0761 20.6324C17.0985 20.6405 17.3405 20.8274 17.4317 20.8553C17.3991 20.639 17.7141 20.9153 17.8255 20.9429C17.9657 20.9774 18.2918 20.9696 18.6032 21.1192C18.8896 21.2559 18.7859 21.3051 18.801 21.3145C18.8978 21.375 18.9686 21.2676 19.0531 21.2794C19.3397 21.3209 20.5233 21.71 21.2045 21.9276C21.3621 21.9778 21.493 22.0179 21.5826 22.0439C21.7114 22.0811 21.694 22.1572 21.7231 22.1655C21.801 22.1876 21.933 22.1436 22.0571 22.1772C22.2791 22.2377 22.5238 22.3759 22.6474 22.4068C22.9438 22.4822 23.5342 22.5304 23.9226 22.6092C24.0335 22.6319 24.0101 22.71 24.0603 22.7201C24.2805 22.7651 24.8695 22.78 25.1472 22.8254C25.5916 22.9005 26.0478 23.0224 26.5099 23.0539C26.5346 23.0936 26.5592 23.1333 26.584 23.1729C26.6347 23.1409 26.6851 23.1086 26.7352 23.0762C27.5096 23.1978 28.3152 23.1799 29.1012 23.2102C29.1916 23.2148 29.6412 23.2928 29.7162 23.2925C29.7778 23.2929 29.8409 23.2032 29.9341 23.2162C30.0644 23.2339 29.9434 23.4063 30.1553 23.3552C30.2121 23.3411 30.1559 23.2688 30.2717 23.244C30.3107 23.2388 31.0476 23.1822 31.0909 23.1815C31.1579 23.1863 31.2268 23.3393 31.2442 23.3415C31.3353 23.3534 31.3246 23.2332 31.3843 23.218C31.559 23.1729 31.8012 23.232 31.8301 23.2273C32.183 23.174 32.8282 22.9907 33.2209 22.9708C33.2756 22.9685 33.2862 23.0577 33.2962 23.0588C33.3602 23.0653 33.3773 22.9576 33.4327 22.9438C33.6473 22.8916 33.9523 22.8524 34.2367 22.7969C34.3881 22.7651 34.5321 22.7273 34.6537 22.6874C34.6997 22.6724 34.7761 22.5899 34.8561 22.5609C35.3061 22.3893 35.1972 22.5176 35.2243 22.5111C35.2866 22.4889 35.3484 22.3598 35.4895 22.2715C35.8682 22.0458 36.4607 21.5924 36.7328 21.3444C36.9426 21.1586 37.0042 21.2338 37.0195 21.2226C37.05 21.1983 37.0721 21.0672 37.1886 20.9378C37.4095 20.6892 37.4364 20.771 37.527 20.6719C37.5343 20.6641 37.4672 20.624 37.5605 20.5135C37.7454 20.2968 38.2078 19.8952 38.3916 19.6796C38.4637 19.5957 38.4241 19.5289 38.4968 19.444C38.5097 19.4288 38.5254 19.412 38.5431 19.3942C38.6841 19.2525 38.9436 19.0459 38.9607 19.0253C38.9665 19.0185 38.9148 18.9482 38.949 18.9079C38.987 18.8633 39.0564 18.8489 39.0839 18.8159C39.2419 18.6275 39.3934 18.2129 39.5527 18.4956C39.5452 18.3876 39.5367 18.2804 39.5281 18.1733C39.8623 17.7925 40.1444 17.3987 40.4443 17.0055C40.511 16.918 40.6141 16.8822 40.671 16.8076C40.7272 16.7339 40.9125 16.3547 40.9547 16.2999C41.0291 16.2031 41.4589 15.6583 41.5189 15.5957C41.6347 15.4741 41.8354 15.4264 41.8593 15.3584C41.8787 15.3036 41.7919 15.2981 41.8427 15.2045C41.9305 15.0424 42.1955 14.8628 42.2293 14.8196C42.2438 14.801 42.1733 14.8 42.3105 14.6273C42.3841 14.5345 42.4716 14.524 42.4989 14.4906C42.5072 14.4801 42.4186 14.4326 42.5785 14.2606C42.6895 14.1415 42.7916 14.1375 42.8027 14.1246C42.8194 14.1054 42.7966 14.0063 42.8646 13.9294C43.0231 13.7505 43.3756 13.4763 43.5274 13.3089C43.5569 13.2765 43.4727 13.2243 43.5927 13.0975C43.6787 13.0069 43.7237 13.074 43.7564 13.0406C43.8082 12.9875 43.8075 12.842 43.9167 12.7202C43.9686 12.6624 44.1546 12.4702 44.3707 12.2537C44.7245 11.8984 45.163 11.4788 45.2078 11.4535C45.256 11.4259 45.298 11.3811 45.347 11.3902C45.3618 11.4341 45.3768 11.4779 45.3917 11.5218C45.1304 11.5984 45.3139 11.6381 45.2803 11.6907C45.2315 11.7668 44.9918 12.0032 44.9649 12.088C44.9554 12.1183 45.0639 12.1264 44.9941 12.2719C44.9193 12.4279 44.7548 12.3818 44.869 12.5706C44.8259 12.5735 44.789 12.5818 44.7579 12.5936C44.5501 12.6729 44.6047 12.9073 44.8046 12.7661C44.819 12.7559 44.8451 12.7333 44.8803 12.701C45.1559 12.4445 46.0146 11.5932 46.2087 11.4034C46.3839 11.2284 46.6549 10.8462 46.8766 10.6355C47.0064 10.5118 47.3199 10.1996 47.3879 10.2907C47.5085 10.1854 47.3112 10.23 47.3232 10.1951C47.3481 10.1219 47.7493 9.81753 47.8133 9.74799C48.1269 9.40462 48.4523 8.89815 48.8736 8.67797C48.8798 8.71406 48.8861 8.75013 48.8923 8.78619C48.8587 8.89694 48.4701 9.17585 48.5351 9.31487C49.0198 8.82553 49.5109 8.33974 50.0073 7.85655C49.9119 7.77783 50.5323 7.18008 50.6005 7.19208C50.6306 7.24531 50.6607 7.29852 50.6909 7.35171C50.1846 7.52707 50.4232 7.71021 50.0788 7.82448C49.9822 7.91533 50.0792 7.95754 50.0456 8.0163C49.7096 8.60293 49.8974 7.87961 49.603 8.29083C49.8092 8.2873 49.5554 8.6093 49.439 8.75029C49.4124 8.78165 49.0014 9.14004 48.9578 9.18744C48.7104 9.45277 48.3307 9.94904 48.0258 10.152C47.8227 10.3481 47.7878 10.5301 47.6281 10.7309C47.5073 10.8831 47.494 10.7942 47.4304 10.8597C47.2971 10.9972 47.4114 11.1914 47.1077 11.0735C47.0462 11.1936 46.9847 11.3142 46.9239 11.4344C46.8897 11.4024 46.8554 11.3704 46.8211 11.3384C46.7657 11.3979 46.71 11.4577 46.6546 11.5174C46.6726 11.5667 46.6906 11.616 46.7086 11.6653C46.4866 11.8113 46.4766 11.6559 46.3463 11.6014C46.3017 11.6364 46.2571 11.6714 46.2127 11.7064C46.2585 11.8071 46.3044 11.9079 46.3505 12.0084C46.1767 12.1863 46.0037 12.365 45.8317 12.5446C45.7862 12.5254 45.7407 12.5062 45.6951 12.487C45.7296 12.5186 45.7641 12.5501 45.7985 12.5816C45.6478 12.758 45.498 12.935 45.3492 13.1126C45.2278 13.2574 45.1068 13.4028 44.9861 13.549C44.9714 13.6656 45.3391 13.3202 45.4581 13.2082C45.4754 13.1918 45.4874 13.1803 45.4921 13.1758C45.6965 12.9791 46.1434 12.3687 46.268 12.4802C46.2935 12.266 46.6751 11.8947 46.897 11.8752C46.7203 12.0529 46.5447 12.2313 46.37 12.4105C46.4168 12.442 46.4636 12.4736 46.5103 12.5051C46.1348 12.5843 46.1124 12.6276 46.0586 13.0074C46.0025 12.9578 45.9464 12.9082 45.8903 12.8586C45.9239 13.1071 45.6166 13.1748 45.5408 13.2808C45.513 13.3196 45.5164 13.3633 45.5792 13.4224C45.4813 13.4946 45.3836 13.5671 45.2856 13.6402C45.1469 13.8615 45.5942 13.7168 44.8639 14.422C44.8134 14.4709 44.7605 14.4068 44.6967 14.4906C44.6785 14.5149 44.657 14.724 44.4333 14.9711C44.3984 15.0097 44.3414 14.9671 44.2998 15.0027C44.2034 15.0843 44.1515 15.3661 44.0481 15.1325C43.6793 15.4714 43.9554 15.4336 43.9148 15.5994C43.8873 15.7104 43.7961 15.6081 43.763 15.6963C43.7223 15.8056 43.879 15.8296 43.5499 16.131C43.5743 16.0866 43.5984 16.0427 43.6228 15.9985C43.5783 15.9942 43.5338 15.9899 43.4893 15.9855C43.3976 16.2375 43.312 16.1368 43.398 16.3609C43.209 16.4449 43.1023 16.5638 42.9558 16.7703C42.6701 17.1735 43.0045 17.1185 42.4134 17.3663C42.389 17.4637 42.3635 17.5626 42.3387 17.6606C42.1742 17.7215 42.1648 17.5557 42.0044 17.7177C42.2875 17.719 41.9237 18.0396 42.0252 18.2266C41.9835 18.2036 41.9418 18.1806 41.9001 18.1576C41.8681 18.1969 41.8356 18.237 41.8035 18.2764C41.8326 18.3003 41.8616 18.3241 41.8907 18.348C41.8259 18.3831 41.762 18.4169 41.6966 18.4527C41.693 18.5162 41.6895 18.5795 41.6861 18.6427C41.5725 18.6576 41.4569 18.6749 41.3428 18.6903C41.3052 18.7279 41.2674 18.7656 41.2292 18.8038C41.2832 18.8262 41.3373 18.8485 41.3915 18.8707C41.3332 18.9124 41.2751 18.9537 41.2173 18.9948C41.3385 18.9918 41.3916 19.0972 41.2516 19.263C41.1368 19.3987 41.117 19.1217 40.9335 19.4687C40.9208 19.4928 40.9968 19.6165 40.7756 19.9139C40.5076 20.2721 40.5712 20.0422 40.5174 20.1007C40.5078 20.1113 40.4695 20.2631 40.3934 20.3671C40.3489 20.4278 40.2599 20.446 40.2537 20.4535C40.2255 20.4901 40.2772 20.5505 40.2366 20.6017C40.1971 20.6513 40.1473 20.7024 40.0953 20.7531C40.0143 20.8314 39.9298 20.9068 39.8679 20.9806C39.823 21.034 39.8147 21.1136 39.7937 21.1382C39.7614 21.1754 39.6671 21.1744 39.6346 21.2112C39.5136 21.3496 39.4943 21.7221 39.191 21.5675C39.2892 21.9077 38.7415 21.956 38.9076 22.074C38.698 22.2378 38.3748 22.6313 37.9936 22.9816C37.6209 23.33 37.1789 23.6196 37.1076 23.4608C36.9095 23.9569 36.8083 23.763 36.6457 23.8717C36.4527 23.9942 36.5839 23.9816 36.4213 24.0724C36.0369 24.2833 35.6193 24.4483 35.1907 24.5964C35.2426 24.529 35.2933 24.4609 35.3423 24.3924C34.9549 24.5204 35.0458 24.5709 34.7788 24.6879C34.7508 24.7013 34.717 24.7151 34.6753 24.7295C34.0844 24.9245 34.3197 24.7703 34.203 24.6748C34.2473 24.7891 33.5795 24.9133 33.5103 24.906C33.4693 24.9033 33.6137 24.7252 33.2298 24.8412C33.2591 24.8837 33.2885 24.9261 33.3181 24.9684C33.1245 24.9387 32.6625 25.086 32.5787 25.0792C32.5364 25.0773 32.3054 24.7263 32.157 25.0411C32.13 24.997 32.1048 24.9526 32.0791 24.9082C31.8917 24.9834 31.7 25.0561 31.5105 25.1259C31.4734 25.0442 31.4365 24.9624 31.3999 24.8805C31.3388 24.8846 31.28 24.8882 31.2194 24.8918C31.2638 24.964 31.3084 25.0361 31.3532 25.1081C30.9746 25.0996 30.5205 25.2303 30.4408 24.9796C30.3632 25.0282 30.2845 25.0764 30.2048 25.1242C30.1527 25.041 30.1013 24.9577 30.05 24.8743C29.6864 24.897 29.6848 24.9518 29.4344 25.0377C29.4452 24.9725 29.456 24.9072 29.4667 24.8419C29.2844 24.9313 28.9494 25.0077 28.6913 25.0072C28.5663 25.0072 28.3602 24.9055 28.3315 24.9119C28.3039 24.9193 27.9876 25.2539 27.9794 24.9455C27.5475 25.0506 27.3738 24.8937 27.2032 24.881C27.0912 24.8723 27.0348 24.9406 26.9097 24.9351C26.7306 24.9271 26.5534 24.8705 26.4522 24.8633C26.3936 24.8593 26.3738 24.9291 26.3331 24.9263C26.1404 24.9129 26.2607 24.8546 26.0596 24.8328C26.0413 24.8312 25.8841 24.8986 25.7195 24.8634C25.6258 24.8439 25.4059 24.7109 25.3847 24.7077C25.2921 24.6947 25.3341 24.9017 25.0535 24.6254C25.0564 24.6638 25.0594 24.7023 25.0625 24.7407C24.6579 24.7696 24.6211 24.5917 24.546 24.5668C24.5363 24.5641 24.4308 24.6105 24.3759 24.5912C24.2832 24.5585 24.261 24.4643 24.2406 24.4565C24.1678 24.4291 23.9115 24.4187 23.7661 24.3016C23.7501 24.5558 23.1586 24.5225 23.0947 24.2151C22.9809 24.2471 22.8696 24.2793 22.7568 24.3107C22.7222 24.2546 22.6877 24.1983 22.6533 24.142C22.615 24.181 22.5767 24.2198 22.5381 24.2587C22.4142 24.1233 22.2964 23.9885 22.1772 23.8525C22.1429 23.9501 22.1085 24.0477 22.0741 24.1452C22.0363 24.1236 21.9984 24.1019 21.9606 24.0801C21.949 23.9927 21.9376 23.9052 21.9264 23.8178C21.8713 23.8197 21.8185 23.8221 21.7643 23.824C21.7369 23.878 21.7094 23.9321 21.6819 23.9861C21.3937 23.9797 21.6783 23.4732 21.0354 23.8098C20.9683 23.7423 20.9013 23.6747 20.8344 23.6067C20.7843 23.6696 20.7364 23.6925 20.6895 23.6943C20.6008 23.7 20.5192 23.6171 20.4309 23.6093C20.3385 23.6011 20.3179 23.6892 20.199 23.6565C20.0802 23.6239 20.1088 23.5423 20.0997 23.5391C20.0044 23.5057 19.9086 23.557 19.8417 23.5217C19.8316 23.5164 19.8334 23.41 19.7447 23.3773C19.6559 23.3446 19.5717 23.4336 19.4429 23.3746C19.376 23.3441 19.3801 23.2553 19.3207 23.2299C19.0389 23.1088 18.6216 23.4425 18.549 22.8804C18.4829 22.9296 18.0577 23.045 17.9096 22.9878C17.6794 22.8984 17.7994 22.8274 17.7093 22.7816C17.6965 22.7749 17.613 22.7863 17.416 22.7222C17.3808 22.7108 17.3729 22.7683 17.3676 22.7676C17.1365 22.6988 16.6995 22.5238 16.4446 22.4409C16.4214 22.4333 16.2602 22.5532 16.1174 22.2871C15.7723 22.3523 15.3088 21.8616 14.8475 21.9784C14.7919 21.9677 14.7434 21.8941 14.7177 21.8887C14.5026 21.8454 14.534 22.0352 14.1343 21.656C14.1481 21.7523 14.0156 21.7977 13.8653 21.748C13.6354 21.6722 13.8452 21.5597 13.6549 21.5198C13.6422 21.5648 13.6295 21.6097 13.6168 21.6547C13.2249 21.4136 13.0846 21.5816 12.6589 21.4649C12.5061 21.423 12.3066 21.2613 12.2722 21.2517C12.2592 21.2484 12.0603 21.3112 12.045 21.3081C11.9546 21.2872 11.9204 21.2243 11.8428 21.2033C11.587 21.1337 11.2531 21.1988 11.3736 20.9552C11.2906 20.9918 11.2107 21.0292 11.1263 21.0657C10.9385 20.7246 10.6526 21.0581 10.6678 20.7779C10.6101 20.8225 10.5495 20.8665 10.4919 20.9114C10.1755 20.8271 9.86651 20.7495 9.59279 20.6884C9.3322 20.6273 9.04587 20.5849 9.06713 20.581C8.87157 20.565 8.77554 20.5706 8.90292 20.5536C9.0158 20.5406 9.43031 20.4443 9.76937 20.2151C9.82642 20.2348 10.0443 20.1021 10.1658 19.9804C10.1504 19.9966 10.1025 20.0313 10.0939 20.0307C10.0102 20.0301 9.91207 19.8481 9.85532 19.9802C9.90948 20.0473 9.96386 20.1142 10.0185 20.181C9.92042 20.3427 9.91132 20.2218 9.81641 20.248C9.80313 20.2817 9.86202 20.3132 9.83615 20.3542C9.69861 20.5672 9.33615 21.0978 9.14838 21.4095C9.11029 21.4717 9.06405 21.4298 9.05169 21.4492C9.01891 21.5023 9.01887 21.6487 8.95275 21.7572C8.53955 22.4264 7.93591 23.4419 7.4965 24.1727C7.4665 24.2221 7.39775 24.1955 7.3769 24.2288C7.34816 24.2752 7.34701 24.4102 7.31631 24.4581C7.28743 24.5036 7.22219 24.5098 7.19077 24.5588C7.04683 24.7814 6.97692 25.1428 6.70769 25.3288C6.68491 25.3441 6.29074 25.4895 6.27034 25.4879C6.14914 25.4762 6.09839 25.1554 5.76021 25.486C5.79312 25.0657 5.50508 25.0664 5.17454 25.4844C5.25239 25.2344 5.33154 24.9856 5.41299 24.7362C5.38532 24.7227 5.35766 24.7093 5.33 24.6958C5.09079 24.8459 4.94529 25.0376 4.78245 25.3618C4.76121 25.3397 4.73997 25.3176 4.71873 25.2955C4.72147 24.9451 4.86146 24.5828 4.79099 24.2789C4.50694 24.5422 4.22527 24.8084 3.94472 25.08C3.93169 25.0543 3.91866 25.0286 3.90565 25.0029C3.92437 24.8195 4.05242 24.4599 4.06446 24.3065C4.11182 23.7165 3.71897 24.6799 3.67657 24.4729C3.92648 23.9419 4.18389 23.415 4.44947 22.8939C4.36694 22.8264 3.16467 24.7592 2.92528 24.6301C2.98489 24.4524 3.0448 24.2761 3.10637 24.0982C3.00648 24.1439 2.9068 24.1895 2.80724 24.2353C2.79622 24.205 2.78522 24.1748 2.77423 24.1445C2.85598 23.8337 2.93969 23.5244 3.02684 23.2141C2.66192 24.1083 2.44807 24.4976 1.83801 24.4816C1.83571 24.4516 1.83342 24.4216 1.83115 24.3916C2.23662 24.3433 2.54474 23.397 2.71305 22.892C2.57313 22.9436 2.44553 23.3978 2.34787 23.4613C2.31988 23.4791 2.29656 23.3602 2.23582 23.4035C2.07741 23.5142 1.66564 24.1207 1.60321 23.9774C1.56065 23.8835 1.95836 22.7835 2.06836 22.581C1.71449 23.0044 1.44654 23.4878 1.07676 23.9106C1.0081 23.5081 0.87903 23.1148 1.13593 22.5432C1.10789 22.317 0.396214 23.4516 0.326708 23.4549C0.357728 23.216 0.389771 22.9778 0.423985 22.738C0.358227 22.9237 0.294082 23.1081 0.230093 23.2943C0.208516 23.2851 0.186939 23.276 0.165361 23.2668C0.275572 22.7615 0.291463 22.2547 0.558996 21.733C0.438818 21.6963 0.297806 22.0173 0.224557 22.17ZM48.3791 10.1965C48.4602 10.2605 48.3122 10.3883 48.235 10.4652C48.2598 10.4665 48.2847 10.4677 48.3095 10.469C48.133 10.6225 47.8043 10.9084 47.9378 11.0577C47.8415 11.1945 47.7663 11.022 47.7151 11.0471C47.6948 11.057 47.6193 11.2829 47.4111 11.3247C47.3832 11.355 47.3554 11.3852 47.3276 11.4155C47.3699 11.4661 47.4121 11.5167 47.4544 11.5672C47.3573 11.5545 47.2601 11.5421 47.163 11.5297C47.5623 11.0823 47.9672 10.6388 48.3785 10.1971C48.3787 10.1969 48.3789 10.1967 48.3791 10.1965ZM44.4274 14.6815C44.2572 14.826 43.9952 15.0489 44.1766 15.1112C44.259 14.9978 44.3411 14.8852 44.4236 14.7724C44.4249 14.7421 44.4261 14.7118 44.4274 14.6815ZM22.2461 23.6971C22.0872 23.4752 21.8655 23.5762 21.5637 23.4618C21.5544 23.4979 21.5451 23.534 21.5358 23.5701C21.6866 23.5184 22.0046 23.664 22.2461 23.6971ZM51.8501 5.86481C51.8896 5.84661 51.9293 5.82837 51.969 5.8101C51.9833 6.07146 51.8651 5.98874 51.7405 6.13279C51.733 6.14154 51.7674 6.17219 51.7647 6.17514C51.7329 6.20931 51.6638 6.19863 51.6339 6.228C51.5761 6.28488 51.5675 6.36988 51.4617 6.46733C51.3801 6.54226 51.319 6.4791 51.2923 6.50746C51.27 6.5316 51.1986 6.93302 50.9746 7.00273C50.5461 7.13534 51.7456 5.93448 51.8501 5.86481ZM52.8359 5.17055C52.8071 5.19833 52.7785 5.22608 52.7499 5.25379C52.7454 5.07343 52.5831 5.25222 52.4544 5.37612C52.3703 5.27719 52.6823 5.06245 52.7804 4.91892C52.7988 5.00287 52.8173 5.08674 52.8359 5.17055ZM49.0169 8.43714C49.1171 8.31927 49.2127 8.45233 49.242 8.49112C49.2071 8.52563 49.1724 8.56008 49.1376 8.59456C49.0974 8.54207 49.0571 8.48962 49.0169 8.43714ZM49.8078 7.582C49.85 7.6941 49.6427 7.96338 49.5358 8.08107C49.5309 8.08595 49.5198 8.01224 49.4433 8.0952C49.4202 8.12025 49.3382 8.5093 49.2151 8.28085C49.4112 8.04775 49.609 7.81463 49.8075 7.58231C49.8076 7.58221 49.8077 7.5821 49.8078 7.582ZM50.097 7.39195C50.0755 7.4608 50.0542 7.52944 50.0325 7.59855C49.973 7.58438 49.9136 7.57021 49.8541 7.55604C49.8967 7.49651 49.94 7.43639 49.9825 7.37709C50.0206 7.38205 50.0588 7.387 50.097 7.39195ZM9.07675 19.1687C9.12424 19.1984 9.1714 19.2285 9.2182 19.2591C9.26857 19.2524 9.20004 18.9794 9.13459 18.9797C9.11692 19.0389 9.09776 19.1017 9.07675 19.1687ZM8.41295 19.827C8.36141 19.8514 8.30928 19.877 8.25663 19.9039C8.3 20.0054 8.34406 20.1064 8.38799 20.2082C8.58363 20.0317 8.79426 19.8682 8.54695 19.7389C8.57973 19.694 8.61323 19.6489 8.6464 19.6049C8.70943 19.7112 8.74482 19.7254 8.88592 19.6603C8.77901 19.5389 8.93136 19.4735 8.99991 19.3378C8.92292 19.4151 8.84378 19.4993 8.76182 19.591C8.7396 19.5739 8.71738 19.5569 8.69516 19.5399C8.86944 19.3325 8.5225 19.4856 8.50167 19.7049C8.46301 19.6946 8.42423 19.6846 8.38533 19.6747C8.39433 19.7255 8.40298 19.777 8.41295 19.827ZM29.7091 23.7783C29.6632 23.7498 29.6173 23.7212 29.5713 23.6925C29.3878 24.0565 29.7524 23.7151 30.0199 24.0029C29.9321 23.7835 30.3312 23.7885 30.355 23.7723C30.3072 23.6991 30.2596 23.6257 30.2123 23.5522C30.0473 23.6293 29.877 23.7047 29.7091 23.7783ZM28.4151 23.4827C28.5636 23.6759 27.7826 23.6378 27.5283 23.5711C27.4664 23.5557 27.3635 23.4451 27.3167 23.4532C27.2855 23.4874 27.254 23.5216 27.2225 23.5557C27.205 23.426 26.6849 23.5146 26.4792 23.557C26.4664 23.5083 26.4535 23.4596 26.4408 23.4108C26.3664 23.4201 26.2906 23.4288 26.2175 23.4377C26.2327 23.3928 26.2478 23.3478 26.2629 23.3029C26.2018 23.3512 26.1403 23.3993 26.0783 23.4472C25.8558 23.4787 26.0237 23.2463 25.8517 23.3013C25.661 23.3619 25.931 23.5546 25.9124 23.651C26.0622 23.6474 26.3997 23.6352 26.5487 23.6502C26.6343 23.6588 26.5146 23.8233 26.9075 23.6642C26.9832 23.7201 27.0588 23.7757 27.1343 23.8309C27.2899 23.7715 27.4485 23.7112 27.6016 23.6492C27.6234 23.7166 27.6449 23.784 27.6675 23.8514C27.684 23.8635 28.0414 23.7425 28.0255 23.6918C28.1557 23.8263 28.4416 23.8677 28.7496 23.8877C28.7806 23.8535 28.8115 23.8193 28.8421 23.7851C28.5443 23.8487 28.7501 23.7435 28.6656 23.6716C28.616 23.6301 28.4671 23.5452 28.4151 23.4827ZM8.89255 19.1089C8.76201 19.1885 8.77785 19.1979 8.76128 19.1853C8.75819 19.1715 8.71197 19.1468 8.76794 19.136C8.77714 19.2204 8.78407 19.3049 8.78969 19.3895C8.67832 19.2436 8.93696 19.3352 8.89284 19.1089C8.89275 19.1089 8.89265 19.1089 8.89255 19.1089ZM7.8027 21.2299C7.8812 21.0022 7.70708 21.0346 7.82836 20.7595C7.82844 20.7594 7.82851 20.7593 7.82858 20.7592C7.73941 20.884 7.65099 21.0104 7.56193 21.1405C7.64221 21.1702 7.72253 21.1999 7.8027 21.2299ZM18.175 21.67C18.3997 21.7739 18.3718 21.6974 18.5509 21.8863C18.9158 21.8276 18.6398 21.7702 18.6793 21.6314C18.5936 21.6504 18.5082 21.6695 18.4231 21.6887C18.2841 21.5074 18.4709 21.4913 18.4746 21.4789C18.4745 21.4788 18.4743 21.4788 18.4742 21.4788C18.4864 21.4372 18.4946 21.4301 18.4341 21.3851C18.3475 21.48 18.2612 21.5749 18.175 21.67ZM19.2384 21.7956C19.1293 21.8635 19.0588 21.9711 19.2556 22.0927C19.2557 22.0927 19.2559 22.0928 19.256 22.0928C19.333 21.8922 19.4879 22.1176 19.5858 22.1313C19.6169 22.1162 19.6481 22.101 19.6792 22.0859C19.5307 21.9887 19.386 21.8926 19.2384 21.7956ZM22.9824 22.6338C22.9292 22.8643 22.7281 22.8398 22.9528 23.117C23.0072 23.1254 23.0613 23.1337 23.1154 23.1418C23.1619 23.0992 23.208 23.0565 23.2544 23.0138C23.8437 23.5813 24.1958 22.9174 22.9978 22.9255C22.9976 22.9256 22.9974 22.9257 22.9972 22.9258C22.9921 22.8285 22.9872 22.7312 22.9824 22.6338ZM21.8072 22.3551C21.7662 22.4727 21.725 22.5902 21.6838 22.7077C21.6143 22.3781 21.3524 22.6025 21.1217 22.3154C21.1087 22.3257 21.0956 22.3359 21.0825 22.3461C21.0599 22.3648 21.0373 22.3835 21.0146 22.4022C20.9347 22.2925 19.9544 21.9812 20.1146 22.227C20.1844 22.3343 20.4216 22.2855 20.4386 22.2931C20.4948 22.3193 20.5417 22.4441 20.6435 22.4674C20.7024 22.4807 20.8598 22.396 20.9791 22.431C21.0017 22.4377 21.0253 22.4471 21.0497 22.4587C21.3286 22.5887 21.726 22.9658 22.141 22.7718C22.158 22.8149 22.1764 22.8583 22.1942 22.9016C22.4803 22.951 22.4152 22.8123 22.6398 23.0134C22.9595 22.4882 21.594 22.7762 21.9687 22.378C21.9686 22.3779 21.9684 22.3779 21.9683 22.3778C21.9147 22.3704 21.861 22.3629 21.8072 22.3551ZM14.6352 20.456C14.6478 20.3494 14.3061 20.4219 14.4454 20.1977C14.325 20.2553 14.2052 20.3131 14.0829 20.3703C14.0772 20.3933 14.0716 20.4162 14.0659 20.4391C14.1685 20.4489 14.2684 20.458 14.3691 20.4674C14.3592 20.5035 14.3493 20.5396 14.3394 20.5757C14.5208 20.4863 15.1015 20.7143 15.0489 20.8373C15.0964 20.7927 15.1432 20.7479 15.1904 20.7033C15.4342 20.9322 15.7245 20.8474 15.9988 21.082C16.0367 21.0447 16.0729 21.0069 16.1099 20.9694C16.1151 21.0099 16.1203 21.0504 16.1255 21.0909C16.2372 21.1282 16.35 21.166 16.4639 21.2041C16.8792 21.1681 16.207 20.769 16.1171 20.7661C16.1047 20.7657 16.0792 20.8592 16.0016 20.8525C15.8624 20.8398 15.1726 20.5398 14.929 20.5366C14.9449 20.4743 14.9607 20.4119 14.9765 20.3496C14.8617 20.3847 14.7498 20.4207 14.6352 20.456ZM24.4349 23.2041C24.4407 23.2719 24.4465 23.3396 24.4525 23.4073C24.776 23.4021 24.9636 23.4917 24.9208 23.2648C24.9206 23.2647 24.9204 23.2647 24.9203 23.2647C24.7559 23.2452 24.5982 23.2258 24.4349 23.2041ZM44.3371 13.1837C44.2337 13.1045 44.1073 13.1765 44.0627 13.372C44.0969 13.3901 44.1312 13.4082 44.1654 13.4262C44.1415 13.284 44.3627 13.3221 44.5289 13.0909C44.4795 13.048 44.43 13.0052 44.3806 12.9624C44.366 13.0361 44.3516 13.1098 44.3371 13.1837ZM24.1731 23.1241C24.0953 23.0301 23.7822 23.2043 23.9549 23.2517C24.0872 23.2878 24.2154 23.1747 24.1731 23.1241ZM7.2227 21.976C7.26476 21.9291 7.30751 21.8813 7.35015 21.834C7.31778 21.7784 7.28547 21.7227 7.25319 21.6671C7.25312 21.6672 7.25305 21.6673 7.25298 21.6675C7.24291 21.7695 7.23163 21.8744 7.2227 21.976ZM17.3626 21.4435C17.5842 21.4998 17.7976 21.5537 18.0186 21.6099C18.031 21.5757 18.0433 21.5415 18.0557 21.5073C17.8003 21.5706 17.7546 21.4085 17.7068 21.3854C17.7071 21.3855 17.7073 21.3855 17.7075 21.3856C17.5557 21.3113 17.4029 21.2445 17.2633 21.1586C17.2962 21.2535 17.3293 21.3484 17.3626 21.4435ZM16.6871 21.0077C16.6519 21.2646 16.6882 21.3062 17.074 21.231C17.0696 21.1968 17.0651 21.1626 17.0607 21.1284C16.8816 21.0958 16.7656 21.1236 16.8331 21.004C16.7842 21.0052 16.7356 21.0064 16.6871 21.0077ZM20.0514 22.0772C20.0351 21.9874 19.6949 21.9733 19.7001 22.0177C19.7036 22.0358 20.0842 22.2536 20.0514 22.0772ZM45.91 11.3306C45.8464 11.3722 45.7827 11.4141 45.719 11.456C45.7648 11.3646 45.8106 11.2734 45.8568 11.1822C45.8745 11.2317 45.8923 11.2812 45.91 11.3306ZM46.1957 10.4868C46.2557 10.4707 46.3065 10.7531 46.5657 10.5644C46.412 10.7346 46.259 10.9056 46.1068 11.077C46.1524 10.973 46.1986 10.8686 46.2447 10.7646C46.1835 10.7331 46.1222 10.7017 46.0609 10.6702C46.1057 10.6091 46.1506 10.548 46.1957 10.4868ZM46.488 10.4226C46.2749 10.3925 46.7152 9.9086 46.7731 9.87999C46.7862 9.87369 46.9267 9.91899 46.9638 9.92163C46.8955 9.99303 46.828 10.064 46.7599 10.1357C46.8129 10.1407 46.8661 10.1455 46.919 10.1507C46.8498 10.2439 46.7808 10.3374 46.7123 10.4306C46.7155 10.366 46.7189 10.3015 46.7224 10.2368C46.6442 10.2986 46.5661 10.3605 46.488 10.4226ZM44.7599 12.379C44.8175 12.3203 44.8752 12.2617 44.933 12.2032C44.8732 12.1721 44.8133 12.1409 44.7535 12.1098C44.7208 12.1467 44.6881 12.1836 44.6555 12.2205C44.6903 12.2734 44.7251 12.3262 44.7599 12.379ZM45.8191 11.0782C45.9699 11.3794 45.2416 11.1547 45.6879 11.0456C45.7331 11.0347 45.8045 11.0493 45.8191 11.0782ZM46.97 9.72905C46.983 9.38455 47.3074 9.77849 47.0327 9.84979C47.0186 9.85312 46.9689 9.75468 46.97 9.72905ZM48.3175 8.34583C48.3337 8.33216 48.4752 8.42263 48.5064 8.17135C48.543 8.16137 48.5796 8.15139 48.6162 8.1414C48.6144 8.2499 48.1816 8.74723 48.1308 8.56824C48.2 8.49511 48.2399 8.41622 48.3175 8.34583ZM47.4356 8.37123C47.3687 8.44535 47.3022 8.51936 47.236 8.59328C47.2956 8.606 47.3551 8.61875 47.4147 8.63153C47.3905 8.67615 47.3664 8.72056 47.3422 8.76527C47.2203 8.7628 47.0985 8.76043 46.9767 8.75818C47.1175 8.5937 47.2589 8.42969 47.4013 8.26569C47.4127 8.30086 47.4242 8.33598 47.4356 8.37123ZM45.5139 10.1879C45.6912 10.0924 45.8011 9.87461 46.0227 9.65685C46.023 9.65685 46.0232 9.65685 46.0234 9.65685C46.0346 9.64614 46.1047 9.67489 46.1411 9.64073C46.1713 9.61072 46.6961 8.95275 46.7376 9.08322C46.5891 9.39105 46.3882 9.36542 46.5267 9.60574C46.4752 9.57829 46.4237 9.55087 46.3723 9.52347C46.0867 9.68175 46.1668 9.88019 46.0988 10.0561C46.0685 10.0265 46.0381 9.997 46.0078 9.96746C45.9247 10.0494 45.8418 10.1315 45.759 10.2138C45.7905 10.2208 45.8221 10.2279 45.8536 10.2349C45.8254 10.265 45.7973 10.2951 45.7692 10.3252C45.6091 10.3129 45.5005 10.3867 45.5139 10.1879ZM47.8028 8.10044C47.64 7.80803 48.4318 7.33023 48.6785 6.99607C48.6598 7.28472 48.3286 7.42384 48.1609 7.5875C47.8361 7.90509 48.1423 7.76761 48.1242 7.85867C48.1156 7.90333 47.7879 7.93964 47.8028 8.10044ZM45.0819 10.7382C45.253 10.59 45.2845 10.4469 45.5033 10.3843C45.5093 10.4122 45.5154 10.4401 45.5215 10.468C45.4603 10.5017 45.0428 10.856 45.0819 10.7382ZM49.1683 6.63627C48.7734 6.85909 49.132 6.91592 48.8164 6.91932C48.9146 6.80416 49.0113 6.69083 49.1098 6.57598C49.1293 6.59607 49.1488 6.61617 49.1683 6.63627ZM23.8974 21.8335C23.7117 21.786 23.5126 21.6807 23.375 21.7731C23.4968 21.8205 23.6223 21.8681 23.7465 21.9146C23.7971 21.8877 23.8474 21.8606 23.8974 21.8335ZM29.3972 21.327C29.3564 21.2972 29.1866 21.3782 29.1684 21.3775C29.1353 21.3765 29.1457 21.3346 29.1456 21.3235C28.9289 21.3236 29.1234 21.4616 28.9634 21.484C28.9365 21.4882 28.5632 21.4058 28.4113 21.4007C28.1743 21.394 27.944 21.3667 27.8546 21.3613C27.7096 21.3528 27.4227 21.4246 27.1806 21.4028C27.0803 21.3936 27.0519 21.3112 26.9532 21.3015C26.3096 21.2455 25.0272 21.1418 24.4727 20.9714C24.3353 20.9308 24.2227 20.8017 24.1489 20.7943C24.0834 20.8187 24.0176 20.8428 23.9514 20.8667C23.8459 20.4967 23.7219 20.7772 23.5231 20.7633C23.3968 20.7541 23.3628 20.6426 23.3464 20.639C23.2363 20.6145 23.1738 20.6482 23.087 20.6349C22.9901 20.6199 22.8641 20.5411 22.8279 20.5402C22.8061 20.5399 22.8376 20.6871 22.4712 20.5877C22.1986 20.513 21.9371 20.4318 21.6657 20.3459C21.5613 20.3128 21.4569 20.2799 21.3522 20.2475C21.3631 20.5989 21.4934 20.498 21.629 20.4716C21.6568 20.4663 21.6849 20.4641 21.7121 20.4694C21.7552 20.4777 21.7108 20.5314 21.7482 20.5392C21.8539 20.5619 22.0672 20.5566 22.1473 20.5944C22.235 20.6355 22.1649 20.7699 22.2969 20.7492C22.3036 20.748 22.3008 20.6839 22.3311 20.6815C22.6338 20.6579 22.6966 20.7847 23.0477 20.8756C23.2791 20.9442 24.7168 21.1933 24.7585 21.2343C24.9744 21.5001 23.4589 21.1876 23.2907 21.1202C23.2303 21.0996 23.3108 21.0495 23.2576 21.0234C23.2338 21.0124 22.9929 21.0868 22.7785 21.0431C22.5192 20.9915 22.0334 20.7692 21.7939 20.7032C21.7223 20.6837 21.6507 20.6639 21.5788 20.6437C19.6089 20.0897 17.6992 19.4495 15.7398 18.8824C15.6967 18.87 15.6201 18.9282 15.4771 18.8871C13.4177 18.3195 11.2217 17.555 9.19788 17.3392C8.61008 17.3116 8.18228 17.3457 7.91353 17.626C7.90772 17.6316 7.90191 17.6374 7.8961 17.6433C7.5251 18.0217 7.23412 18.5198 6.85766 18.9609C6.86266 19.0524 6.8675 19.1449 6.87274 19.2377C6.94128 19.0546 7.24068 18.8541 7.26116 18.8304C7.26856 18.8213 7.25623 18.7299 7.3276 18.6403C7.42481 18.5186 7.51199 18.4978 7.5193 18.4882C7.54357 18.4576 7.48176 18.4414 7.50505 18.4124C7.68119 18.1952 7.80868 18.0216 7.97635 17.8497C7.9983 17.8274 8.0196 17.8083 8.04013 17.7916C8.1614 17.7044 8.23571 17.7485 8.28876 17.6115C8.31808 17.6503 8.34549 17.6902 8.37114 17.7309C8.3562 17.571 8.73621 17.4786 9.19109 17.5076C9.33828 17.5129 9.49237 17.5353 9.59911 17.5528C9.71825 17.5726 9.68293 17.6509 9.72293 17.6568C9.74879 17.6615 9.75255 17.5496 10.0676 17.6274C10.2225 17.6669 10.2551 17.7537 10.3329 17.7667C10.3767 17.7741 10.3849 17.6965 10.4489 17.7097C10.8157 17.7865 11.1101 17.8814 11.4683 17.9838C11.569 18.0127 11.5552 18.0761 11.5784 18.0809C11.6635 18.0991 11.8344 18.0287 12.0482 18.0841C12.4002 18.1744 13.0993 18.3632 13.3739 18.4945C13.4155 18.5142 13.4279 18.5982 13.4592 18.6057C13.5062 18.6166 13.5462 18.5435 13.5546 18.5454C13.7121 18.5876 13.5972 18.634 13.7082 18.6458C13.7688 18.6524 13.852 18.5795 13.986 18.6062C14.164 18.6417 14.1005 18.7379 14.177 18.748C14.1849 18.7484 14.2096 18.6761 14.2804 18.6934C14.5521 18.7605 14.9525 18.8562 15.2095 18.9301C15.2827 18.9511 15.3231 19.0162 15.4264 19.0467C15.6329 19.1073 16.8214 19.4178 16.9102 19.4748C16.9197 19.4808 16.7823 19.558 16.952 19.6039C17.0149 19.5734 17.0747 19.542 17.1363 19.5111C17.1958 19.6067 17.2558 19.7023 17.3164 19.7982C17.3875 19.5488 17.8742 19.6493 17.7956 19.9025C17.845 19.9281 17.8945 19.9538 17.9443 19.9796C18.1066 19.8362 18.1563 19.9212 18.3977 19.8797C18.4148 19.9432 18.432 20.0068 18.4492 20.0703C18.4681 20.0368 18.4869 20.0033 18.5057 19.9698C18.5639 20.1982 18.8009 20.0554 18.8244 20.0611C18.9115 20.0819 18.9619 20.1504 19.003 20.1607C19.1591 20.2008 19.4987 20.2262 19.6688 20.3104C19.6766 20.3144 19.644 20.3952 19.6917 20.4203C19.776 20.4652 19.82 20.3458 19.8982 20.524C19.9329 20.4952 19.9677 20.4664 20.0026 20.4376C20.0229 20.4637 20.0433 20.4899 20.0638 20.516C20.22 20.5514 20.375 20.5864 20.5293 20.6211C20.3501 20.7217 20.4855 20.8467 20.6694 20.7801C20.7316 20.7575 20.7112 20.6584 20.7321 20.6504C20.7632 20.6404 21.4302 20.8825 21.4622 20.952C21.4724 20.9476 21.4826 20.9432 21.4928 20.9388C21.5237 20.9259 21.5546 20.9129 21.5853 20.8998C21.5865 20.9588 21.5878 21.0178 21.5891 21.0767C21.613 21.0631 21.6368 21.0495 21.6606 21.0358C21.8161 21.1845 22.3526 21.0948 22.4329 21.1337C22.4767 21.155 22.3724 21.3763 22.6021 21.4103C22.6262 21.3484 22.6503 21.2866 22.6744 21.2247C22.7277 21.2286 22.7809 21.2323 22.8339 21.2359C22.9275 21.2656 23.038 21.4103 23.024 21.4873C23.0645 21.4489 23.1062 21.4108 23.1472 21.3725C23.1932 21.5413 23.6333 21.5885 23.829 21.5317C23.8697 21.5879 23.9105 21.6439 23.9514 21.6998C24.0311 21.6597 24.1101 21.6192 24.1905 21.5788C24.3526 21.5952 24.1661 21.6516 24.1983 21.6662C24.2681 21.6977 24.6591 21.6152 24.5985 21.8026C24.6487 21.8128 24.6988 21.823 24.7487 21.8329C24.7848 21.7828 24.8208 21.7326 24.8566 21.6824C24.9065 21.8879 25.0658 21.849 25.3597 21.9706C25.3926 21.9311 25.4255 21.8916 25.4581 21.852C25.5403 21.9298 25.6264 22.0078 25.7114 22.0851C25.7424 22.0155 25.7732 21.9459 25.8039 21.8762C25.8465 21.8722 25.8889 21.868 25.9312 21.8637C25.9883 22.0391 26.1666 21.8852 26.2329 21.9631C26.3304 22.0768 26.2291 22.1827 26.0154 22.1745C26.0146 22.2971 26.6454 22.3282 26.7902 22.3349C26.7835 22.3104 26.7769 22.286 26.7703 22.2616C26.6225 22.2624 26.4692 22.2613 26.3226 22.26C26.2412 21.9444 26.6265 22.0787 26.8128 22.0612C26.83 22.0594 26.9361 21.9575 27.1192 21.9884C27.1895 22.0008 27.4479 22.1953 27.5021 22.2094C27.9255 22.3245 27.627 22.0593 28.0336 22.3019C27.9586 22.1352 28.1877 22.2874 28.4448 22.2715C28.4875 22.2694 28.8596 22.1581 28.8834 22.1551C29.0368 22.1404 28.8638 22.2757 29.088 22.2469C29.1162 22.2106 29.1443 22.1742 29.1721 22.1377C29.2239 22.1393 29.2754 22.1407 29.3266 22.1419C29.6342 22.4809 29.7131 22.2354 29.8236 22.2046C29.8692 22.1919 29.8105 22.2787 29.9288 22.2602C29.9731 22.2532 30.0221 22.1811 30.1392 22.1747C30.5103 22.1531 30.6506 22.4569 30.9786 22.1188C31.0339 22.1624 31.0891 22.2058 31.1443 22.249C31.1761 22.1911 31.2075 22.1331 31.2399 22.0749C31.5245 22.2169 31.4131 22.0582 31.51 22.0525C31.7705 22.0385 32.3027 22.0061 32.3685 22.1299C32.5501 21.796 32.8711 22.0925 32.96 22.0637C33.0049 22.0177 33.0542 21.9705 33.0994 21.9236C33.1694 21.9481 33.236 21.9727 33.3091 21.9954C33.2164 21.7081 33.601 21.9253 33.6369 21.9197C33.655 21.9176 33.7972 21.8592 33.9487 21.7924C34.1093 21.7255 34.2805 21.6411 34.3771 21.602C34.5795 21.5268 34.9491 21.4182 34.977 21.3992C35.0129 21.3807 35.2774 21.1218 35.4868 20.9584C35.7023 20.8294 36.7166 20.0019 36.5512 19.9646C36.4668 19.9984 36.3609 20.0603 36.2763 20.1195C36.0751 20.3166 34.5147 21.4843 33.8705 21.5196C33.8584 21.5225 33.847 21.5252 33.8363 21.5277C32.8876 21.7476 31.9165 21.8707 30.9771 21.8944C30.9215 21.8957 30.9091 21.8182 30.8613 21.8187C30.7906 21.8202 30.6133 21.9055 30.5409 21.9059C30.2784 21.9081 29.958 21.8977 29.8153 21.895C29.5022 21.89 29.2881 21.8375 29.0492 21.8215C28.9774 21.8172 28.5955 21.8977 28.3409 21.8394C28.2956 21.8145 28.2491 21.7893 28.2053 21.7642C28.3407 21.7486 28.6877 21.7026 28.8504 21.7016C29.0871 21.701 29.2132 21.7674 29.3007 21.7686C29.3734 21.7703 29.753 21.7043 29.9261 21.7012C29.9796 21.7004 29.991 21.7822 30.0367 21.7816C30.2843 21.7782 30.6162 21.7665 30.825 21.6758C30.7382 21.7075 31.2907 21.7268 31.3212 21.7221C31.3712 21.7183 31.4169 21.6381 31.5181 21.6294C31.7138 21.6118 31.7008 21.7747 31.9294 21.5887C31.9948 21.6284 32.0578 21.668 32.1251 21.7067C32.1019 21.4987 32.9049 21.6747 33.0708 21.3692C33.0691 21.3491 32.088 21.4234 32.0063 21.4196C31.5251 21.4538 30.812 21.5514 30.3425 21.5221C30.1991 21.5155 29.7566 21.3871 29.7252 21.3883C29.672 21.3915 29.7195 21.4661 29.6964 21.4686C29.2181 21.5176 29.4596 21.3709 29.3972 21.327ZM45.7518 9.72873C45.6478 9.8261 45.544 9.92389 45.4405 10.0218C45.4133 9.98228 45.3861 9.94274 45.3589 9.90318C45.4168 9.86796 45.4747 9.83277 45.5327 9.79762C45.5466 9.7419 45.5605 9.68625 45.5746 9.63052C45.6337 9.66323 45.6927 9.69596 45.7518 9.72873ZM45.8506 9.33891C45.9189 9.23295 45.9947 9.29678 46.0178 9.27955C46.0871 9.22822 46.1091 9.14741 46.1674 9.08866C46.2707 9.32005 46.0539 9.3912 45.8506 9.33891ZM44.0578 11.1589C44.0849 11.1453 44.3965 11.1758 44.3634 10.8614C44.5249 10.794 44.6865 10.7271 44.8482 10.661C44.5827 10.7819 44.4219 11.1378 44.3312 11.2325C44.2967 11.2685 44.2326 11.2238 44.205 11.2527C44.047 11.4203 44.0313 11.704 43.823 11.5516C44.0227 11.4379 44.0237 11.1763 44.0578 11.1589ZM45.0602 10.1915C45.1247 10.2009 45.1891 10.2104 45.2535 10.22C45.1632 10.3173 45.0729 10.4151 44.9832 10.5129C44.9674 10.4497 44.9517 10.3864 44.9361 10.3231C44.9774 10.2792 45.0189 10.2352 45.0602 10.1915ZM38.2751 17.964C38.3297 17.9001 38.3836 17.8368 38.4385 17.7719C38.4055 17.7505 38.3436 17.8248 38.3007 17.8347C38.3008 17.8346 38.3009 17.8345 38.301 17.8344C38.2529 17.8452 38.225 17.8001 38.1624 17.8401C38.2 17.8813 38.2376 17.9226 38.2751 17.964ZM6.67945 19.2242C6.59529 19.3285 5.93092 20.4029 6.11384 20.3855C6.20094 20.3771 6.37203 19.9753 6.43995 19.8708C6.53198 19.724 6.90818 19.4301 6.67945 19.2242ZM5.49673 21.1207C5.60879 21.208 6.01969 20.5344 6.0394 20.4573C6.01358 20.4611 5.96178 20.4601 5.94174 20.4739C5.8457 20.5384 5.6121 20.9918 5.49673 21.1207ZM34.5377 21.0118C34.6339 21.0426 34.7329 21.0698 34.8329 21.0942C34.7685 21.0236 34.7051 20.9522 34.6428 20.8801C34.6087 20.9246 34.5743 20.9682 34.5377 21.0118ZM28.1499 21.8038C27.0543 21.7197 25.9667 21.5669 24.8932 21.3604C24.9953 21.34 25.0954 21.3188 25.1968 21.2974C26.1209 21.4776 27.1121 21.6471 28.0256 21.6569C28.067 21.706 28.1084 21.7549 28.1499 21.8038ZM43.5425 11.1043C43.4687 11.1868 43.4085 11.2715 43.3448 11.3532C43.2499 11.4747 43.1477 11.5891 42.981 11.6817C43.0566 11.4805 43.1865 11.4222 43.2797 11.2961C43.3186 11.2433 43.3512 11.1788 43.3709 11.0869C43.371 11.0868 43.3711 11.0867 43.3712 11.0866C43.4283 11.0924 43.4854 11.0983 43.5425 11.1043ZM39.5734 15.81C39.5753 15.7038 39.5784 15.5961 39.58 15.4903C39.5168 15.5682 39.4521 15.6479 39.3889 15.7259C39.4504 15.7539 39.5119 15.782 39.5734 15.81ZM18.9778 19.4365C18.6625 19.4929 18.0206 19.0358 17.7496 19.1357C17.7317 19.1423 17.8454 19.251 17.5897 19.3225C17.7613 19.3427 17.8838 19.3479 17.9273 19.2456C17.9654 19.2958 18.0037 19.3459 18.0421 19.3962C18.1314 19.3928 18.2207 19.3894 18.3082 19.3855C18.2687 19.4885 18.2764 19.4846 18.4212 19.4486C18.4698 19.4918 18.5186 19.5351 18.5676 19.5784C18.6048 19.5408 18.642 19.5032 18.6792 19.4656C18.7106 19.5426 18.7411 19.6194 18.7711 19.696C18.9804 19.6837 18.9005 19.5288 18.9778 19.4365ZM19.9431 19.7471C19.903 19.7102 18.594 19.4091 19.1181 19.791C19.2749 19.8296 19.4248 19.8662 19.5796 19.9042C19.5546 19.5187 19.8819 19.9528 19.9116 19.9694C20.063 20.0506 20.2954 20.0287 20.4137 20.0679C20.514 20.1014 20.5551 20.1812 20.6269 20.2005C20.8722 20.2663 21.2575 20.3764 21.3522 20.2475C21.1644 20.1895 20.9729 20.1319 20.7741 20.0777C20.5659 20.0209 20.4211 19.8309 19.9768 19.9035C19.8868 19.8554 19.9529 19.7564 19.9431 19.7471ZM39.7514 15.3031C39.8618 15.4064 40.1563 14.9865 40.1123 14.9462C40.0858 14.9235 39.9813 15.0533 39.9562 15.0632C39.9561 15.0634 39.956 15.0635 39.9559 15.0636C39.9452 15.0676 39.9319 14.9923 39.8704 15.0427C39.8304 15.1298 39.7907 15.2167 39.7514 15.3031ZM7.60379 17.4911C7.47295 17.4494 6.53096 18.7093 6.55665 18.7806C6.55887 18.7971 6.59921 18.8041 6.61406 18.8203C6.72221 18.4516 7.14721 18.1194 7.37398 17.8723C7.43595 17.8042 7.3737 17.7848 7.37601 17.7803C7.37616 17.7802 7.37631 17.78 7.37646 17.7798C7.41361 17.7354 7.67868 17.6628 7.60379 17.4911ZM17.2443 19.06C17.3016 19.1013 17.3592 19.1426 17.4171 19.1841C17.4466 19.1441 17.4761 19.104 17.5056 19.064C17.5054 19.0639 17.5053 19.0639 17.5051 19.0638C17.4177 19.0624 17.3307 19.0611 17.2443 19.06ZM15.0503 18.2662C15.057 18.3022 15.0637 18.3384 15.0705 18.3745C15.2343 18.4259 15.3922 18.4759 15.5545 18.5273C15.5329 18.5404 15.5114 18.5535 15.4898 18.5666C15.7249 18.6857 15.8546 18.6029 15.9818 18.6569C15.9816 18.6569 15.9815 18.6569 15.9813 18.6568C15.9949 18.6627 15.993 18.7335 16.0451 18.7509C16.1671 18.7917 16.4985 18.9143 16.5616 18.8609C16.6898 18.7449 15.9779 18.6113 15.8508 18.5678C15.7933 18.548 15.7421 18.4709 15.7055 18.4589C15.6664 18.4463 15.5903 18.5086 15.4961 18.479C15.4684 18.4701 15.1885 18.2909 15.0503 18.2662ZM12.1486 17.5725C12.1795 17.6569 12.3023 17.6148 12.3384 17.6367C12.347 17.6419 12.259 17.6831 12.3421 17.724C12.3776 17.6895 12.4134 17.6551 12.4492 17.6208C12.3472 17.6039 12.2469 17.5878 12.1486 17.5725ZM40.2383 14.591C40.2164 14.5927 40.0477 14.8092 40.0473 14.8257C40.0485 15.0386 40.3959 14.5885 40.2383 14.591ZM44.6471 9.24318C44.4154 9.19941 45.5885 8.24177 45.6839 8.13307C45.7674 8.22424 45.4309 8.39451 45.6824 8.37784C45.4916 8.44094 45.1871 8.83192 45.0883 8.89738C45.028 8.93728 44.9383 8.87695 44.9285 8.88237C44.8908 8.90449 44.728 9.25785 44.6471 9.24318ZM46.6108 7.30697C46.4941 7.39133 46.3769 7.47661 46.2605 7.56159C46.3683 7.43199 46.4767 7.30242 46.5853 7.17322C46.5938 7.21783 46.6023 7.26241 46.6108 7.30697ZM46.6974 7.1401C46.609 7.05888 47.0157 6.78081 47.0866 6.67189C47.1286 6.91732 46.8236 6.95024 46.6974 7.1401ZM41.1569 12.9864C40.9532 13.1078 41.1735 13.4142 41.224 13.1043C41.2253 13.0946 41.1661 12.982 41.1569 12.9864ZM19.0564 18.9243C19.0231 18.9122 18.5985 18.6645 18.5573 18.7136C18.422 18.8688 18.7396 18.8836 18.8211 18.981C18.9512 19.1383 18.6876 19.1594 19.098 19.2076C19.0714 19.2389 19.0449 19.2701 19.0184 19.3013C19.2445 19.3805 19.2425 19.1097 19.2932 19.0898C19.3085 19.0837 19.448 19.1472 19.478 19.1388C19.8598 19.0329 19.0886 18.9355 19.0564 18.9243ZM37.6409 17.2378C37.2722 17.5056 37.5187 17.4644 37.2161 17.8032C37.2699 17.8684 37.6609 17.3278 37.6409 17.2378ZM23.1612 20.2488C22.7081 20.169 22.3783 19.9684 21.9302 19.9906C21.8946 20.2184 23.2632 20.3389 23.1612 20.2488ZM4.1246 21.5274C5.26075 20.2125 6.08016 18.4729 7.37044 17.102C7.4648 17.0087 7.5705 16.9242 7.68577 16.8543C7.89876 16.7326 7.95725 16.8184 8.0303 16.7792C8.07961 16.7563 8.04913 16.6908 8.12134 16.67C8.50932 16.5651 8.88041 16.5785 9.22827 16.5857C11.2917 16.7729 13.1192 17.3287 14.9776 17.8667C15.1115 17.9074 15.738 18.2457 15.9437 18.0656C16.1007 17.9291 15.5813 17.9213 15.5038 17.8976C15.4446 17.8795 15.4652 17.8 15.4253 17.7883C15.3823 17.7757 15.4024 17.8397 15.3523 17.8263C15.14 17.7697 14.9212 17.6847 14.7291 17.6354C12.9028 17.1922 11.2144 16.6096 9.23559 16.4044C9.17827 16.4019 9.12104 16.3996 9.06225 16.3978C8.8182 16.3918 8.86565 16.3291 8.85388 16.3281C8.85371 16.3283 8.85354 16.3285 8.85337 16.3286C8.376 16.3126 7.64792 16.4569 7.21562 16.9426C6.59079 17.6165 6.13668 18.3724 5.64583 19.0632C5.10067 19.8316 4.59851 20.626 4.11959 21.4325C4.12125 21.4641 4.12292 21.4957 4.1246 21.5274ZM19.9324 19.4224C19.8906 19.1518 19.7936 19.3839 19.4273 19.1713C19.3827 19.2023 19.3382 19.2334 19.2937 19.2644C19.509 19.3178 19.7172 19.3691 19.933 19.4226C19.9328 19.4226 19.9326 19.4225 19.9324 19.4224ZM17.331 18.5675C17.3543 18.2254 16.4029 18.1951 16.0162 18.0174C15.8954 18.1576 16.5007 18.2537 16.6326 18.3106C16.7011 18.3395 17.0161 18.6111 17.3252 18.6014C17.3271 18.5901 17.329 18.5788 17.331 18.5675ZM43.2209 10.0711C43.1828 10.1282 43.1448 10.1852 43.1069 10.2422C43.2476 10.1405 43.3887 10.0391 43.5299 9.93843C43.3308 10.1227 43.1324 10.3083 42.9349 10.4949C42.9164 10.4111 42.8979 10.3272 42.8797 10.2433C42.9934 10.1855 43.1071 10.1282 43.2209 10.0711ZM42.6641 10.7518C42.8852 10.4707 42.8333 10.6819 42.7347 10.8177C42.7023 10.8623 42.6649 10.8988 42.6304 10.9073C42.548 10.9276 42.6308 10.7953 42.6623 10.7541C42.6629 10.7533 42.6635 10.7526 42.6641 10.7518ZM41.7667 11.6065C41.8172 11.3588 42.1035 11.0141 42.1841 11.2938C41.9416 11.4004 41.9132 11.5789 41.639 11.8003C41.6361 11.7315 41.6334 11.6626 41.6307 11.5937C41.6308 11.5936 41.631 11.5934 41.6311 11.5932C41.6763 11.5976 41.7215 11.6021 41.7667 11.6065ZM42.6966 10.4917C42.879 10.4093 42.7367 10.5964 42.6125 10.7104C42.5248 10.7909 42.4458 10.8351 42.4942 10.7219C42.4961 10.7175 42.5191 10.6896 42.549 10.6547C42.6061 10.5878 42.6887 10.4954 42.6966 10.4917ZM4.88397 19.6527C4.93275 19.7262 5.05608 19.517 5.10297 19.4509C5.30486 19.1638 5.517 18.7649 5.73282 18.4663C5.69582 18.4742 5.65873 18.4824 5.62155 18.4908C5.36306 18.8736 5.11856 19.2623 4.88397 19.6527ZM6.41938 17.5246C6.58186 17.3206 6.75261 17.1193 6.94248 16.9223C6.96037 16.9034 6.99844 16.7681 6.92215 16.8215C6.73211 17.0555 6.57063 17.2894 6.41938 17.5246ZM21.5474 19.3971C21.3799 19.3018 21.9624 19.2336 21.8714 19.4621C21.7628 19.4403 21.6548 19.4186 21.5474 19.3971ZM23.2319 19.7601C23.1151 19.7549 22.9952 19.7482 22.8791 19.7419C22.886 19.7146 22.893 19.6874 22.9 19.6601C23.0088 19.6936 23.1218 19.7275 23.2319 19.7601ZM4.34416 20.4768C4.48998 20.4128 4.62593 20.1428 4.72367 19.9792C4.58533 20.0519 4.46693 20.3413 4.34416 20.4768ZM18.8783 18.5135C18.8734 18.5804 18.1633 18.3555 18.4439 18.3172C18.5896 18.3828 18.7319 18.4476 18.8783 18.5135ZM17.451 17.9953C17.6073 18.0258 17.72 18.0822 17.6596 18.172C17.5792 18.144 17.5001 18.1164 17.4201 18.0885C17.4304 18.0574 17.4407 18.0263 17.451 17.9953ZM41.0729 12.1227C40.9057 12.3364 40.7388 12.551 40.5731 12.7656C40.5578 12.7399 40.5425 12.7142 40.5272 12.6885C40.6873 12.4812 40.8479 12.2743 41.0092 12.068C41.0304 12.0862 41.0517 12.1045 41.0729 12.1227ZM4.04698 20.4908C3.97141 20.6652 3.89669 20.8409 3.82303 21.0172C3.92961 20.8584 4.03703 20.7006 4.14503 20.5445C4.11228 20.5264 4.07953 20.5082 4.04678 20.4901C4.04685 20.4903 4.04691 20.4905 4.04698 20.4908ZM43.2582 9.07001C42.5975 9.5997 43.2142 8.716 43.5071 8.68587C43.5072 8.68558 43.5072 8.6853 43.5072 8.68502C43.5329 8.68245 43.5657 8.76841 43.6119 8.76748C43.5269 8.8044 43.4417 8.84167 43.3567 8.87904C43.3382 8.9676 43.32 9.05595 43.3018 9.14453C43.2712 9.15106 43.2405 9.15761 43.2098 9.16417C43.2259 9.13279 43.242 9.1014 43.2582 9.07001ZM45.5285 6.57991C46.071 6.05407 45.673 6.74707 45.2956 6.9003C45.2706 6.87179 45.4783 6.62854 45.5285 6.57991ZM44.182 8.03588C44.1134 8.13552 44.0452 8.23515 43.9773 8.3348C43.9497 8.32976 43.9221 8.32474 43.8944 8.31973C43.9401 8.23672 43.9856 8.15417 44.0316 8.07133C44.0817 8.05948 44.1319 8.04763 44.182 8.03588ZM41.2746 10.7143C41.1296 10.8437 41.1688 11.2001 41.519 10.6871C41.4975 10.669 41.476 10.6508 41.4545 10.6327C41.4417 10.6543 41.4145 10.7263 41.4104 10.728C41.3976 10.7319 41.3351 10.6605 41.2746 10.7143ZM45.9963 5.06326C46.004 5.04063 45.8045 4.82006 46.1799 4.88165C46.2152 4.82069 46.2507 4.75965 46.2863 4.69853C46.3447 4.7329 46.4029 4.76748 46.4612 4.80197C46.2378 4.94983 46.311 5.06385 46.2994 5.07912C46.2461 5.14906 46.2442 5.05533 46.2035 5.09409C46.0978 5.19493 45.8957 5.4597 45.8652 5.21629C45.8545 5.12888 45.9884 5.08609 45.9963 5.06326ZM45.5116 5.30611C45.5517 5.30114 45.5402 5.43526 45.5747 5.43562C45.6045 5.43592 45.8923 5.27488 45.9347 5.43965C45.8934 5.47199 45.8521 5.50431 45.8109 5.53661C45.77 5.52055 45.7292 5.5045 45.6883 5.48846C45.6789 5.5503 45.6695 5.61201 45.66 5.67404C45.5297 5.66397 45.3107 5.70146 45.4056 5.49199C45.3556 5.554 45.3057 5.61594 45.256 5.67783C45.2608 5.74041 45.2655 5.8031 45.2703 5.86567C45.2341 5.79938 45.1979 5.73306 45.1617 5.66671C45.278 5.54634 45.395 5.42573 45.5116 5.30611ZM47.2816 3.6159C47.3006 3.64957 47.3195 3.68324 47.3385 3.7169C47.4985 3.46669 47.806 3.1373 47.7834 3.48315C47.5138 3.76731 47.2455 4.05226 46.9782 4.33843C46.9399 4.33634 46.9016 4.33431 46.8633 4.33225C47.1486 4.20683 46.7624 3.9382 47.038 3.85624C47.0845 3.84271 47.1068 4.04516 47.229 3.78419C47.1961 3.76373 47.1631 3.74328 47.1301 3.72283C47.1805 3.68724 47.231 3.65159 47.2816 3.6159ZM49.1222 1.95286C48.7253 2.24957 49.0284 1.77934 49.1727 1.8002C49.1726 1.80031 49.1725 1.80041 49.1724 1.80052C49.5669 1.85762 49.0722 2.11351 49.0498 2.13734C49.0197 2.16925 49.0977 2.40086 48.7036 2.32577C48.8424 2.20181 48.9834 2.07611 49.1222 1.95286ZM47.9103 3.01661C47.9353 2.98277 47.9576 3.03954 47.97 3.02662C47.9701 3.02651 47.9702 3.0264 47.9703 3.02629C48.1545 2.83444 48.5764 2.36765 48.7513 2.45376C48.6192 2.5979 48.01 3.22815 47.8869 3.1749C47.895 3.12187 47.9025 3.06937 47.9103 3.01661ZM46.6597 4.40612C46.4608 4.43501 46.7125 4.16811 46.82 4.14031C46.8414 4.13602 46.8656 4.37641 46.6597 4.40612ZM38.0113 13.4996C37.8426 13.82 38.1918 13.5023 38.1761 13.6977C38.2115 13.6393 38.2465 13.5812 38.282 13.5225C38.1917 13.515 38.1014 13.5073 38.0113 13.4996ZM26.6716 18.6803C26.5987 18.6566 26.6244 18.7288 26.6178 18.7288C26.5688 18.7199 26.5301 18.6584 26.5103 18.6613C26.1483 18.7193 26.369 18.8103 26.371 18.8241C26.3684 18.8915 26.2644 18.955 26.3804 19.0502C26.4604 19.0382 26.5437 19.0264 26.6247 19.0139C26.6581 19.0563 26.6916 19.0986 26.7251 19.1408C26.8899 19.0826 26.6914 19.0335 26.6833 18.925C26.6805 18.8825 26.8309 18.8532 26.6716 18.6803ZM37.4375 13.8501C37.4926 13.9691 37.5197 14.1716 37.6984 14.1391C37.6985 14.139 37.6986 14.1389 37.6987 14.1388C37.7317 14.1325 37.8063 14.0595 37.8499 14.054C37.8714 13.7784 37.6901 13.7445 37.4375 13.8501ZM28.0632 18.6275C28.1829 18.6654 28.3045 18.7025 28.4232 18.7384C28.4162 18.8087 28.4092 18.8791 28.4022 18.9494C28.3382 18.9258 28.2738 18.9019 28.2091 18.8777C28.1834 18.9079 28.1575 18.9382 28.1314 18.9684C28.2078 19.0555 28.2842 19.1421 28.3607 19.2284C28.461 19.2073 28.5656 19.1859 28.6657 19.1635C28.6223 19.1236 28.579 19.0836 28.5356 19.0435C28.7809 19.0173 28.7147 19.1855 28.9156 19.2612C28.9878 19.199 29.0589 19.1365 29.1286 19.0736C29.2257 19.143 29.3236 19.2117 29.4204 19.2797C29.5874 19.2524 29.6038 19.2022 29.4922 19.1254C29.577 19.0413 29.6653 19.1773 29.7635 19.1429C29.7716 19.1401 29.7569 19.0594 29.764 19.0584C30.2711 19.0043 30.2472 19.2113 30.3288 19.2196C30.3851 19.2248 30.6096 19.0738 30.6096 19.0246C30.6087 18.9581 30.1438 18.721 30.858 18.6803C30.484 18.5236 30.0634 18.7108 30.3454 18.9681C30.2263 18.947 29.6909 19.0143 29.6572 19.0043C29.6074 18.9918 29.6263 18.8924 29.5637 18.8888C29.526 18.8865 29.4252 19.1144 29.1349 18.9048C29.0965 18.9408 29.0577 18.9767 29.0185 19.0126C28.9845 18.9803 28.9506 18.948 28.9166 18.9156C28.9947 18.8095 29.071 18.7029 29.1455 18.5959C28.8585 18.7045 28.6354 18.4666 28.448 18.6427C28.3007 18.6104 28.2287 18.5826 28.3007 18.4915C28.2557 18.4881 28.2106 18.4845 28.1652 18.4808C28.1312 18.5297 28.0968 18.5786 28.0632 18.6275ZM36.9171 14.7576C36.7275 14.8169 36.8723 15.013 36.8991 15.0013C37.0488 14.9343 37.0157 14.7268 36.9171 14.7576ZM26.9305 18.8423C27.0938 18.9251 27.2507 19.0055 27.4165 19.0851C27.4247 19.0109 27.433 18.9367 27.4412 18.8624C27.2687 18.8571 27.1035 18.851 26.9305 18.8423ZM37.9135 13.3536C37.9677 13.3756 38.0219 13.3977 38.0762 13.4197C38.0467 13.1316 38.4019 13.1601 38.419 13.0432C38.4225 13.018 38.3182 12.9895 38.2751 13.0087C38.248 13.021 37.9214 13.3138 37.9135 13.3536ZM43.6066 6.84643C43.5801 6.9285 43.5538 7.01055 43.5274 7.09279C43.4848 7.04626 43.4421 6.99972 43.3995 6.95317C43.4175 6.91727 43.4356 6.88123 43.4536 6.84544C43.5046 6.84574 43.5556 6.84607 43.6066 6.84643ZM43.0714 7.55705C42.9728 7.65486 42.8747 7.75251 42.7765 7.85091C43.0949 7.4243 42.7779 7.72283 42.9378 7.43181C42.9824 7.47355 43.0269 7.5153 43.0714 7.55705ZM42.0248 8.50392C42.0085 8.466 41.9921 8.42806 41.9758 8.3901C42.0694 8.28697 42.1632 8.18413 42.2574 8.08148C42.1017 8.05812 41.9457 8.03529 41.7897 8.01275C41.7549 8.05044 41.7202 8.08807 41.6855 8.12589C41.7985 8.25198 41.9116 8.37799 42.0248 8.50392ZM23.4475 17.7421C23.3767 17.7217 23.094 17.7642 23.0935 17.8073C23.1859 17.8858 23.2782 17.9636 23.3703 18.0409C23.3896 17.9685 23.4089 17.8962 23.4282 17.8239C23.4335 17.8637 23.4394 17.9037 23.4451 17.9437C23.5128 17.9323 23.5801 17.9206 23.6471 17.9086C23.6614 17.9797 23.6758 18.0507 23.6904 18.1218C23.739 18.0569 23.7873 17.9919 23.8353 17.9268C23.579 17.7268 23.5557 17.8564 23.4955 17.8397C23.4649 17.8312 23.4567 17.7812 23.452 17.7559C23.4505 17.7513 23.449 17.7467 23.4475 17.7421ZM27.1076 18.3847C26.7659 18.3222 26.5375 18.4873 26.3133 18.2854C26.4195 18.6626 27.5109 18.4439 27.8446 18.7631C27.8882 18.7107 27.9314 18.6581 27.9742 18.6054C27.7707 18.6374 27.6438 18.5073 27.5497 18.4804C27.4743 18.4588 27.4757 18.5183 27.4699 18.5168C27.4696 18.5168 27.4693 18.5167 27.4691 18.5167C27.2888 18.472 27.2437 18.4091 27.1076 18.3847ZM37.882 12.9557C37.7474 12.9802 37.6383 13.1286 37.7381 13.2117C37.8311 13.1569 37.9253 13.1006 38.0182 13.046C37.9792 13.0412 37.9051 12.9515 37.882 12.9557ZM41.647 8.38079C41.5594 8.41466 41.4542 8.58719 41.5948 8.59847C41.6199 8.60031 41.6933 8.40099 41.7664 8.62244C41.8925 8.47792 41.6971 8.36163 41.647 8.38079ZM32.7301 18.5567C32.7783 18.5416 32.8237 18.5265 32.8678 18.5112C32.8655 18.4576 32.8628 18.4041 32.8597 18.3507C32.8182 18.4199 32.7783 18.4877 32.7301 18.5567ZM38.3725 12.2125C38.6287 12.3045 38.5361 12.0238 38.8083 12.0249C38.85 11.9768 38.8921 11.9283 38.934 11.88C38.9341 11.8799 38.9342 11.8798 38.9343 11.8797C38.8814 11.8338 38.8285 11.7879 38.7756 11.7421C38.6404 11.8993 38.5061 12.0561 38.3725 12.2125ZM29.1868 18.6956C29.2232 18.7294 29.2596 18.7632 29.296 18.7968C29.3636 18.7608 29.4297 18.7245 29.4957 18.6879C29.4607 18.66 29.4265 18.6321 29.3918 18.604C29.3245 18.6349 29.2562 18.6654 29.1868 18.6956ZM39.0703 11.3316C38.9023 11.4837 39.0207 11.6904 39.2036 11.4706C39.2808 11.3777 39.2467 11.1718 39.0703 11.3316ZM19.4694 16.681C19.5375 16.7208 19.6038 16.76 19.6702 16.7993C19.7078 16.7615 19.7455 16.7236 19.7832 16.6858C19.6784 16.6842 19.5761 16.6832 19.4694 16.681ZM42.394 7.60199C42.4222 7.64055 42.4503 7.6791 42.4785 7.71764C42.4245 7.76205 42.3705 7.80659 42.3165 7.85127C42.2941 7.80689 42.2717 7.76248 42.2494 7.71806C42.2977 7.67918 42.3457 7.64063 42.394 7.60199ZM19.9475 16.851C20.003 16.8766 20.0591 16.9023 20.1146 16.9279C20.1594 16.9173 20.2043 16.9067 20.2492 16.8961C20.2016 16.8586 20.1557 16.8215 20.1069 16.7837C20.0536 16.8061 20.0005 16.8285 19.9475 16.851ZM40.4681 9.71228C40.368 9.74175 40.2743 10.1201 40.5127 9.91172C40.6648 9.77887 40.4831 9.70803 40.4681 9.71228ZM40.7348 9.31964C40.4669 9.48109 40.8969 9.63374 40.9889 9.28525C40.9999 9.24375 41.0062 9.19513 41.006 9.13852C40.9791 9.17771 40.955 9.21004 40.9335 9.23662C40.7721 9.43598 40.7505 9.31039 40.7348 9.31964ZM42.5008 6.95212C42.5067 6.94617 42.5686 6.99476 42.6166 6.94796C42.7892 6.77902 43.031 6.5695 43.1534 6.44852C43.4461 6.15554 44.231 5.15161 44.4968 5.20817C44.5522 5.21992 44.6035 5.37027 44.6175 5.36656C44.6577 5.35502 44.7575 5.15671 44.8042 5.25828C44.6576 5.40441 44.512 5.55045 44.3664 5.69729C44.3493 5.60935 44.3323 5.52131 44.3154 5.43319C43.9817 5.82848 44.098 5.70424 44.1094 5.92253C44.004 5.94118 43.8981 5.96054 43.7924 5.97983C43.7048 6.15986 43.6172 6.34074 43.5307 6.52125C43.5271 6.45763 43.5232 6.3943 43.5195 6.33078C43.2581 6.47776 43.3541 6.45997 43.3274 6.65162C43.2934 6.61958 43.2594 6.58754 43.2255 6.55551C43.1162 6.83489 42.9777 6.77792 42.9347 6.82076C42.8465 6.91015 43.1408 7.40204 42.415 7.3742C42.4721 7.70117 42.0807 7.33207 42.2014 7.60452C41.7515 7.65296 42.2701 7.24916 42.4868 7.03336C42.4869 7.03324 42.487 7.03312 42.4872 7.033C42.5036 7.01672 42.4419 7.0092 42.5008 6.95212ZM41.519 8.42431C41.4764 8.10799 40.9149 8.70079 41.3564 8.73296C41.3916 8.71063 41.4268 8.6884 41.462 8.66617C41.4809 8.58546 41.5001 8.50472 41.5193 8.42396C41.5192 8.42408 41.5191 8.42419 41.519 8.42431ZM36.5622 14.0814C36.1866 14.7007 36.5514 14.4739 36.6002 14.198C36.6097 14.1434 36.5978 14.0993 36.5622 14.0814ZM26.641 18.1327C26.6272 18.1602 26.6135 18.1876 26.5997 18.215C26.8221 18.2213 27.2263 18.3858 27.2443 18.1896C27.0431 18.173 26.8439 18.1543 26.641 18.1327ZM28.3554 18.1945C28.311 18.1795 28.1249 18.1362 28.1413 18.2112C28.2192 18.2701 28.2968 18.3285 28.3742 18.3864C28.4145 18.3567 28.4541 18.3268 28.494 18.297C28.4422 18.2824 28.3675 18.1985 28.3554 18.1945Z" fill="#1C1917"/>
<path d="M58.46 21V7H63.2C64.3067 7 65.2133 7.18667 65.92 7.56C66.6267 7.93333 67.1467 8.43333 67.48 9.06C67.8267 9.67333 68 10.3733 68 11.16C68 11.9067 67.8267 12.6 67.48 13.24C67.1467 13.8667 66.62 14.3733 65.9 14.76C65.18 15.1333 64.26 15.32 63.14 15.32H60.46V21H58.46ZM65.82 21L62.8 14.78H65L68.14 21H65.82ZM60.46 13.8H63.06C64.0467 13.8 64.7733 13.56 65.24 13.08C65.7067 12.5867 65.94 11.96 65.94 11.2C65.94 10.4267 65.7133 9.81333 65.26 9.36C64.8067 8.90667 64.0733 8.68 63.06 8.68H60.46V13.8ZM74.0689 21.24C73.2822 21.24 72.5956 21.08 72.0089 20.76C71.4356 20.44 70.9889 19.96 70.6689 19.32C70.3622 18.68 70.2089 17.8733 70.2089 16.9V10.92H72.2089V16.68C72.2089 17.6267 72.4156 18.34 72.8289 18.82C73.2422 19.3 73.8356 19.54 74.6089 19.54C75.1289 19.54 75.5956 19.4133 76.0089 19.16C76.4356 18.9067 76.7689 18.54 77.0089 18.06C77.2489 17.58 77.3689 16.9933 77.3689 16.3V10.92H79.3689V21H77.5889L77.4489 19.28C77.1422 19.8933 76.6956 20.3733 76.1089 20.72C75.5222 21.0667 74.8422 21.24 74.0689 21.24ZM85.3272 21.24C84.5005 21.24 83.8139 21.1 83.2672 20.82C82.7205 20.54 82.3139 20.1667 82.0472 19.7C81.7805 19.22 81.6472 18.7067 81.6472 18.16C81.6472 17.4933 81.8205 16.9267 82.1672 16.46C82.5139 15.98 83.0072 15.6133 83.6472 15.36C84.2872 15.1067 85.0539 14.98 85.9472 14.98H88.5672C88.5672 14.3933 88.4805 13.9067 88.3072 13.52C88.1339 13.1333 87.8739 12.8467 87.5272 12.66C87.1939 12.46 86.7672 12.36 86.2472 12.36C85.6472 12.36 85.1339 12.5067 84.7072 12.8C84.2805 13.08 84.0139 13.5 83.9072 14.06H81.9072C81.9872 13.3533 82.2272 12.7533 82.6272 12.26C83.0405 11.7533 83.5672 11.3667 84.2072 11.1C84.8472 10.82 85.5272 10.68 86.2472 10.68C87.1939 10.68 87.9872 10.8467 88.6272 11.18C89.2672 11.5133 89.7472 11.9867 90.0672 12.6C90.4005 13.2 90.5672 13.92 90.5672 14.76V21H88.8272L88.6672 19.3C88.5205 19.5667 88.3472 19.82 88.1472 20.06C87.9472 20.3 87.7072 20.5067 87.4272 20.68C87.1605 20.8533 86.8472 20.9867 86.4872 21.08C86.1405 21.1867 85.7539 21.24 85.3272 21.24ZM85.7072 19.62C86.1339 19.62 86.5205 19.5333 86.8672 19.36C87.2139 19.1867 87.5072 18.9533 87.7472 18.66C88.0005 18.3533 88.1872 18.0133 88.3072 17.64C88.4405 17.2533 88.5139 16.86 88.5272 16.46V16.4H86.1472C85.5739 16.4 85.1072 16.4733 84.7472 16.62C84.4005 16.7533 84.1472 16.94 83.9872 17.18C83.8272 17.42 83.7472 17.7 83.7472 18.02C83.7472 18.3533 83.8205 18.64 83.9672 18.88C84.1272 19.1067 84.3539 19.2867 84.6472 19.42C84.9405 19.5533 85.2939 19.62 85.7072 19.62ZM93 21V10.92H94.8L94.92 12.64C95.24 12.04 95.6933 11.5667 96.28 11.22C96.8667 10.86 97.54 10.68 98.3 10.68C99.1 10.68 99.7867 10.84 100.36 11.16C100.933 11.48 101.38 11.9667 101.7 12.62C102.02 13.26 102.18 14.0667 102.18 15.04V21H100.18V15.24C100.18 14.3067 99.9733 13.6 99.56 13.12C99.1467 12.64 98.5467 12.4 97.76 12.4C97.24 12.4 96.7733 12.5267 96.36 12.78C95.9467 13.02 95.6133 13.38 95.36 13.86C95.12 14.34 95 14.9267 95 15.62V21H93ZM108.698 25.64C107.778 25.64 106.965 25.52 106.258 25.28C105.565 25.0533 105.025 24.7 104.638 24.22C104.252 23.74 104.058 23.1533 104.058 22.46C104.058 22.1 104.138 21.74 104.298 21.38C104.458 21.02 104.718 20.6733 105.078 20.34C105.438 20.0067 105.918 19.7067 106.518 19.44L107.618 20.32C106.965 20.5867 106.518 20.8933 106.278 21.24C106.052 21.6 105.938 21.94 105.938 22.26C105.938 22.66 106.058 22.9933 106.298 23.26C106.538 23.5267 106.865 23.7267 107.278 23.86C107.692 23.9933 108.165 24.06 108.698 24.06C109.205 24.06 109.645 23.9867 110.018 23.84C110.405 23.6933 110.705 23.4867 110.918 23.22C111.132 22.9533 111.238 22.64 111.238 22.28C111.238 21.8667 111.078 21.5133 110.758 21.22C110.452 20.94 109.852 20.7733 108.958 20.72C108.212 20.6667 107.572 20.5933 107.038 20.5C106.518 20.4067 106.072 20.2933 105.698 20.16C105.338 20.0267 105.032 19.88 104.778 19.72C104.538 19.5467 104.332 19.3733 104.158 19.2V18.74L106.158 16.7L107.738 17.24L105.598 19.28L106.018 18.38C106.165 18.4867 106.305 18.58 106.438 18.66C106.572 18.74 106.752 18.8133 106.978 18.88C107.205 18.9467 107.505 19.0067 107.878 19.06C108.265 19.1133 108.772 19.1667 109.398 19.22C110.292 19.2867 111.012 19.4467 111.558 19.7C112.118 19.9533 112.525 20.2933 112.778 20.72C113.032 21.1333 113.158 21.6333 113.158 22.22C113.158 22.7933 112.998 23.34 112.678 23.86C112.358 24.38 111.872 24.8067 111.218 25.14C110.565 25.4733 109.725 25.64 108.698 25.64ZM108.678 17.92C107.838 17.92 107.118 17.76 106.518 17.44C105.932 17.12 105.478 16.6933 105.158 16.16C104.852 15.6133 104.698 15.0133 104.698 14.36C104.698 13.6933 104.852 13.0933 105.158 12.56C105.478 12.0267 105.932 11.6 106.518 11.28C107.118 10.9467 107.838 10.78 108.678 10.78C109.518 10.78 110.232 10.9467 110.818 11.28C111.418 11.6 111.872 12.0267 112.178 12.56C112.498 13.0933 112.658 13.6933 112.658 14.36C112.658 15.0133 112.498 15.6133 112.178 16.16C111.872 16.6933 111.418 17.12 110.818 17.44C110.232 17.76 109.518 17.92 108.678 17.92ZM108.678 16.32C109.332 16.32 109.852 16.1533 110.238 15.82C110.625 15.4867 110.818 15 110.818 14.36C110.818 13.72 110.625 13.2333 110.238 12.9C109.852 12.5667 109.332 12.4 108.678 12.4C108.038 12.4 107.518 12.5667 107.118 12.9C106.718 13.2333 106.518 13.72 106.518 14.36C106.518 15 106.718 15.4867 107.118 15.82C107.518 16.1533 108.038 16.32 108.678 16.32ZM110.298 12.6L109.818 11.02H113.958V12.38L110.298 12.6ZM116.005 21V7H120.785C121.905 7 122.825 7.18667 123.545 7.56C124.265 7.93333 124.798 8.43333 125.145 9.06C125.491 9.68667 125.665 10.4 125.665 11.2C125.665 11.96 125.491 12.66 125.145 13.3C124.811 13.9267 124.285 14.4333 123.565 14.82C122.845 15.1933 121.918 15.38 120.785 15.38H118.005V21H116.005ZM118.005 13.72H120.705C121.758 13.72 122.505 13.4933 122.945 13.04C123.398 12.5733 123.625 11.96 123.625 11.2C123.625 10.3867 123.398 9.76 122.945 9.32C122.505 8.88 121.758 8.66 120.705 8.66H118.005V13.72ZM131.595 21.24C130.635 21.24 129.781 21.02 129.035 20.58C128.288 20.14 127.701 19.5267 127.275 18.74C126.861 17.9533 126.655 17.04 126.655 16C126.655 14.9333 126.861 14.0067 127.275 13.22C127.701 12.42 128.288 11.8 129.035 11.36C129.781 10.9067 130.648 10.68 131.635 10.68C132.621 10.68 133.468 10.9 134.175 11.34C134.881 11.78 135.428 12.3667 135.815 13.1C136.201 13.82 136.395 14.62 136.395 15.5C136.395 15.6333 136.388 15.78 136.375 15.94C136.375 16.0867 136.368 16.2533 136.355 16.44H128.115V15.02H134.395C134.355 14.18 134.075 13.5267 133.555 13.06C133.035 12.58 132.388 12.34 131.615 12.34C131.068 12.34 130.568 12.4667 130.115 12.72C129.661 12.96 129.295 13.32 129.015 13.8C128.748 14.2667 128.615 14.86 128.615 15.58V16.14C128.615 16.8867 128.748 17.52 129.015 18.04C129.295 18.5467 129.661 18.9333 130.115 19.2C130.568 19.4533 131.061 19.58 131.595 19.58C132.235 19.58 132.761 19.44 133.175 19.16C133.588 18.88 133.895 18.5 134.095 18.02H136.095C135.921 18.6333 135.628 19.1867 135.215 19.68C134.801 20.16 134.288 20.54 133.675 20.82C133.075 21.1 132.381 21.24 131.595 21.24ZM138.497 21V10.92H140.297L140.417 12.64C140.737 12.04 141.19 11.5667 141.777 11.22C142.363 10.86 143.037 10.68 143.797 10.68C144.597 10.68 145.283 10.84 145.857 11.16C146.43 11.48 146.877 11.9667 147.197 12.62C147.517 13.26 147.677 14.0667 147.677 15.04V21H145.677V15.24C145.677 14.3067 145.47 13.6 145.057 13.12C144.643 12.64 144.043 12.4 143.257 12.4C142.737 12.4 142.27 12.5267 141.857 12.78C141.443 13.02 141.11 13.38 140.857 13.86C140.617 14.34 140.497 14.9267 140.497 15.62V21H138.497ZM153.455 21.24C152.628 21.24 151.942 21.1 151.395 20.82C150.848 20.54 150.442 20.1667 150.175 19.7C149.908 19.22 149.775 18.7067 149.775 18.16C149.775 17.4933 149.948 16.9267 150.295 16.46C150.642 15.98 151.135 15.6133 151.775 15.36C152.415 15.1067 153.182 14.98 154.075 14.98H156.695C156.695 14.3933 156.608 13.9067 156.435 13.52C156.262 13.1333 156.002 12.8467 155.655 12.66C155.322 12.46 154.895 12.36 154.375 12.36C153.775 12.36 153.262 12.5067 152.835 12.8C152.408 13.08 152.142 13.5 152.035 14.06H150.035C150.115 13.3533 150.355 12.7533 150.755 12.26C151.168 11.7533 151.695 11.3667 152.335 11.1C152.975 10.82 153.655 10.68 154.375 10.68C155.322 10.68 156.115 10.8467 156.755 11.18C157.395 11.5133 157.875 11.9867 158.195 12.6C158.528 13.2 158.695 13.92 158.695 14.76V21H156.955L156.795 19.3C156.648 19.5667 156.475 19.82 156.275 20.06C156.075 20.3 155.835 20.5067 155.555 20.68C155.288 20.8533 154.975 20.9867 154.615 21.08C154.268 21.1867 153.882 21.24 153.455 21.24ZM153.835 19.62C154.262 19.62 154.648 19.5333 154.995 19.36C155.342 19.1867 155.635 18.9533 155.875 18.66C156.128 18.3533 156.315 18.0133 156.435 17.64C156.568 17.2533 156.642 16.86 156.655 16.46V16.4H154.275C153.702 16.4 153.235 16.4733 152.875 16.62C152.528 16.7533 152.275 16.94 152.115 17.18C151.955 17.42 151.875 17.7 151.875 18.02C151.875 18.3533 151.948 18.64 152.095 18.88C152.255 19.1067 152.482 19.2867 152.775 19.42C153.068 19.5533 153.422 19.62 153.835 19.62ZM161.928 21.1C161.541 21.1 161.221 20.98 160.968 20.74C160.728 20.4867 160.608 20.1867 160.608 19.84C160.608 19.48 160.728 19.18 160.968 18.94C161.221 18.6867 161.541 18.56 161.928 18.56C162.314 18.56 162.628 18.6867 162.868 18.94C163.108 19.18 163.228 19.48 163.228 19.84C163.228 20.1867 163.108 20.4867 162.868 20.74C162.628 20.98 162.314 21.1 161.928 21.1Z" fill="#1C1917"/>
</svg>
